<?xml version="1.0" encoding="UTF-8" standalone="no"?>
<svg
   xmlns:dc="http://purl.org/dc/elements/1.1/"
   xmlns:cc="http://creativecommons.org/ns#"
   xmlns:rdf="http://www.w3.org/1999/02/22-rdf-syntax-ns#"
   xmlns:svg="http://www.w3.org/2000/svg"
   xmlns="http://www.w3.org/2000/svg"
   viewBox="0 0 1004 978.66669"
   height="978.66669"
   width="1004"
   xml:space="preserve"
   id="svg2"
   version="1.1"><metadata
     id="metadata8"><rdf:RDF><cc:Work
         rdf:about=""><dc:format>image/svg+xml</dc:format><dc:type
           rdf:resource="http://purl.org/dc/dcmitype/StillImage" /></cc:Work></rdf:RDF></metadata><defs
     id="defs6"><clipPath
       id="clipPath20"
       clipPathUnits="userSpaceOnUse"><path
         id="path18"
         d="M 0,2 V 7338 H 7528 V 2 Z" /></clipPath></defs><g
     transform="matrix(1.3333333,0,0,-1.3333333,0,978.66667)"
     id="g10"><g
       transform="scale(0.1)"
       id="g12"><g
         id="g14"><g
           clip-path="url(#clipPath20)"
           id="g16"><path
             id="path22"
             style="fill:none;stroke:#000000;stroke-width:9.99300003;stroke-linecap:round;stroke-linejoin:round;stroke-miterlimit:10;stroke-dasharray:none;stroke-opacity:1"
             d="M 3799.97,3630.03 6947.77,6777.82 3799.97,3630.03 6947.77,482.234 3799.97,3630.03 652.176,482.234 3799.97,3630.03 652.176,6777.82 3799.97,3630.03" /><path
             id="path24"
             style="fill:none;stroke:#000000;stroke-width:9.99300003;stroke-linecap:round;stroke-linejoin:round;stroke-miterlimit:10;stroke-dasharray:none;stroke-opacity:1"
             d="M 6797.87,6627.93 V 632.129 H 802.07 V 6627.93 h 5995.8 L 6939.2,6486.61 6797.87,6345.29 6939.2,6203.96 6797.87,6062.64 6939.2,5921.32 6797.87,5779.99 6939.2,5638.67 6797.87,5497.35 6939.2,5356.03 6797.87,5214.7 6939.2,5073.38 6797.87,4932.06 6939.2,4790.74 6797.87,4649.41 6939.2,4508.09 6797.87,4366.77 6939.2,4225.45 6797.87,4084.13 6939.2,3942.8 6797.87,3801.48 6939.2,3660.16 6797.87,3518.84 6939.2,3377.52 6797.87,3236.19 6939.2,3094.87 6797.87,2953.55 6939.2,2812.22 6797.87,2670.9 6939.2,2529.58 6797.87,2388.26 6939.2,2246.93 6797.87,2105.61 6939.2,1964.29 6797.87,1822.97 6939.2,1681.64 6797.87,1540.32 6939.2,1399 6797.87,1257.68" /><path
             id="path26"
             style="fill:none;stroke:#000000;stroke-width:9.99300003;stroke-linecap:round;stroke-linejoin:round;stroke-miterlimit:10;stroke-dasharray:none;stroke-opacity:1"
             d="M 6797.87,1257.68 6939.2,1116.36 6797.87,975.035 6939.2,833.711 6797.87,692.391" /><path
             id="path28"
             style="fill:none;stroke:#000000;stroke-width:9.99300003;stroke-linecap:round;stroke-linejoin:round;stroke-miterlimit:10;stroke-dasharray:none;stroke-opacity:1"
             d="m 802.07,6627.93 141.325,141.32 141.315,-141.32 141.33,141.32 141.32,-141.32 141.32,141.32 141.33,-141.32 141.32,141.32 141.32,-141.32 141.32,141.32 141.33,-141.32 141.32,141.32 141.32,-141.32 141.32,141.32 141.33,-141.32 141.32,141.32 141.32,-141.32 141.32,141.32 141.33,-141.32 141.32,141.32 141.32,-141.32 141.32,141.32 141.32,-141.32 141.33,141.32 141.32,-141.32 141.32,141.32 141.32,-141.32 141.33,141.32 141.32,-141.32 141.32,141.32 141.32,-141.32 141.33,141.32 141.32,-141.32 141.32,141.32 141.32,-141.32 141.33,141.32 141.32,-141.32 141.32,141.32 141.32,-141.32 141.32,141.32 141.32,-141.32 141.33,141.32 141.32,-141.32" /><path
             id="path30"
             style="fill:none;stroke:#000000;stroke-width:9.99300003;stroke-linecap:round;stroke-linejoin:round;stroke-miterlimit:10;stroke-dasharray:none;stroke-opacity:1"
             d="M 6797.87,632.129 6656.55,490.805 6515.23,632.129 6373.91,490.805 6232.58,632.129 6091.26,490.805 5949.94,632.129 5808.62,490.805 5667.29,632.129 5525.97,490.805 5384.65,632.129 5243.33,490.805 5102,632.129 4960.68,490.805 4819.36,632.129 4678.04,490.805 4536.71,632.129 4395.39,490.805 4254.07,632.129 4112.75,490.805 3971.43,632.129 3830.1,490.805 3688.78,632.129 3547.46,490.805 3406.14,632.129 3264.81,490.805 3123.49,632.129 2982.17,490.805 2840.85,632.129 2699.52,490.805 2558.2,632.129 2416.88,490.805 2275.55,632.129 2134.23,490.805 1992.91,632.129 1851.59,490.805 1710.27,632.129 1568.95,490.805 1427.62,632.129 1286.3,490.805 1144.98,632.129 1003.66,490.805 862.332,632.129" /><path
             id="path32"
             style="fill:none;stroke:#000000;stroke-width:9.99300003;stroke-linecap:round;stroke-linejoin:round;stroke-miterlimit:10;stroke-dasharray:none;stroke-opacity:1"
             d="m 802.07,632.129 -141.32,141.32 141.32,141.324 -141.32,141.317 141.32,141.33 -141.32,141.32 141.32,141.32 -141.32,141.32 141.32,141.33 -141.32,141.32 141.32,141.32 -141.32,141.33 141.32,141.32 -141.32,141.32 141.32,141.32 -141.32,141.32 141.32,141.33 -141.32,141.32 141.32,141.32 -141.32,141.32 141.32,141.32 -141.32,141.33 141.32,141.32 -141.32,141.32 141.32,141.32 -141.32,141.33 141.32,141.32 -141.32,141.32 141.32,141.33 -141.32,141.32 141.32,141.32 -141.32,141.32 141.32,141.33 -141.32,141.32 141.32,141.32 -141.32,141.32 141.32,141.32 -141.32,141.32 141.32,141.33 -141.32,141.32 141.32,141.32 -141.32,141.32 141.32,141.33" /><path
             id="path34"
             style="fill:none;stroke:#000000;stroke-width:9.99300003;stroke-linecap:round;stroke-linejoin:round;stroke-miterlimit:10;stroke-dasharray:none;stroke-opacity:1"
             d="M 6947.77,6777.82 V 482.234 H 652.176 V 6777.82 H 6947.77" /><path
             id="path36"
             style="fill:#ffffff;fill-opacity:1;fill-rule:evenodd;stroke:none"
             d="M 6947.77,6777.82 3799.97,3630.03 h 899.37 l -24.24,207.41 -71.42,196.22 -114.75,174.47 -151.89,143.3 -180.84,104.41 -200.06,59.89 -208.46,12.15 -205.65,-36.26 -191.74,-82.71 -167.5,-124.7 -134.23,-159.97 -93.72,-186.61 -48.16,-203.19 v -208.82 l 48.16,-203.19 93.72,-186.61 134.23,-159.97 167.5,-124.7 191.74,-82.71 205.65,-36.26 208.46,12.14 200.06,59.89 180.84,104.41 151.89,143.31 114.75,174.46 71.42,196.23 24.24,207.41 2248.43,3147.79" /><path
             id="path38"
             style="fill:none;stroke:#000000;stroke-width:9.99300003;stroke-linecap:round;stroke-linejoin:round;stroke-miterlimit:10;stroke-dasharray:none;stroke-opacity:1"
             d="m 4699.34,3630.03 -24.24,207.41 -71.42,196.22 -114.75,174.47 -151.89,143.3 -180.84,104.41 -200.06,59.89 -208.46,12.15 -205.65,-36.26 -191.74,-82.71 -167.5,-124.7 -134.23,-159.97 -93.72,-186.61 -48.16,-203.19 v -208.82 l 48.16,-203.19 93.72,-186.61 134.23,-159.97 167.5,-124.7 191.74,-82.71 205.65,-36.26 208.46,12.14 200.06,59.89 180.84,104.41 151.89,143.31 114.75,174.46 71.42,196.23 24.24,207.41" /><path
             id="path40"
             style="fill:#ffffff;fill-opacity:1;fill-rule:evenodd;stroke:none"
             d="m 4699.34,3630.03 h -899.37 849.41 l -24.68,203.27 -72.62,191.47 -116.32,168.52 -153.27,135.78 -181.31,95.16 -198.82,49.01 h -204.77 l -198.82,-49.01 -181.32,-95.16 -153.27,-135.78 -116.32,-168.52 -72.61,-191.47 -24.68,-203.27 24.68,-203.28 72.61,-191.46 116.32,-168.52 153.27,-135.79 181.32,-95.16 198.82,-49 h 204.77 l 198.82,49 181.31,95.16 153.27,135.79 116.32,168.52 72.62,191.46 24.68,203.28 h 49.96" /><path
             id="path42"
             style="fill:none;stroke:#000000;stroke-width:9.99300003;stroke-linecap:round;stroke-linejoin:round;stroke-miterlimit:10;stroke-dasharray:none;stroke-opacity:1"
             d="m 4649.38,3630.03 -24.68,203.27 -72.62,191.47 -116.32,168.52 -153.27,135.78 -181.31,95.16 -198.82,49.01 h -204.77 l -198.82,-49.01 -181.32,-95.16 -153.27,-135.78 -116.32,-168.52 -72.61,-191.47 -24.68,-203.27 24.68,-203.28 72.61,-191.46 116.32,-168.52 153.27,-135.79 181.32,-95.16 198.82,-49 h 204.77 l 198.82,49 181.31,95.16 153.27,135.79 116.32,168.52 72.62,191.46 24.68,203.28" /><path
             id="path44"
             style="fill:#ffffff;fill-opacity:1;fill-rule:evenodd;stroke:none"
             d="m 3799.97,3630.03 v 0 h 599.58 l -24.28,168.92 -70.9,155.24 -111.76,128.97 -143.56,92.27 -163.75,48.07 h -170.66 l -163.74,-48.07 -143.57,-92.27 -111.76,-128.97 -70.89,-155.24 -24.29,-168.92 24.29,-168.92 70.89,-155.24 111.76,-128.98 143.57,-92.26 163.74,-48.08 h 170.66 l 163.75,48.08 143.56,92.26 111.76,128.98 70.9,155.24 24.28,168.92 h -599.58" /><path
             id="path46"
             style="fill:none;stroke:#000000;stroke-width:9.99300003;stroke-linecap:round;stroke-linejoin:round;stroke-miterlimit:10;stroke-dasharray:none;stroke-opacity:1"
             d="m 4399.55,3630.03 -24.28,168.92 -70.9,155.24 -111.76,128.97 -143.56,92.27 -163.75,48.07 h -170.66 l -163.74,-48.07 -143.57,-92.27 -111.76,-128.97 -70.89,-155.24 -24.29,-168.92 24.29,-168.92 70.89,-155.24 111.76,-128.98 143.57,-92.26 163.74,-48.08 h 170.66 l 163.75,48.08 143.56,92.26 111.76,128.98 70.9,155.24 24.28,168.92" /><path
             id="path48"
             style="fill:#ffffff;fill-opacity:1;fill-rule:evenodd;stroke:none"
             d="m 4399.55,3630.03 h -599.58 549.62 l -24.42,162 -71.08,147.61 -111.44,120.09 -141.88,81.92 -159.73,36.46 -163.37,-12.25 -152.51,-59.85 -128.09,-102.15 -92.28,-135.36 -48.29,-156.55 v -163.84 l 48.29,-156.55 92.28,-135.36 128.09,-102.15 152.51,-59.86 163.37,-12.24 159.73,36.46 141.88,81.91 111.44,120.1 71.08,147.61 24.42,162 h 49.96" /><path
             id="path50"
             style="fill:none;stroke:#000000;stroke-width:9.99300003;stroke-linecap:round;stroke-linejoin:round;stroke-miterlimit:10;stroke-dasharray:none;stroke-opacity:1"
             d="m 4349.59,3630.03 -24.42,162 -71.08,147.61 -111.44,120.09 -141.88,81.92 -159.73,36.46 -163.37,-12.25 -152.51,-59.85 -128.09,-102.15 -92.28,-135.36 -48.29,-156.55 v -163.84 l 48.29,-156.55 92.28,-135.36 128.09,-102.15 152.51,-59.86 163.37,-12.24 159.73,36.46 141.88,81.91 111.44,120.1 71.08,147.61 24.42,162" /><path
             id="path52"
             style="fill:#ffffff;fill-opacity:1;fill-rule:evenodd;stroke:none"
             d="m 3799.97,3630.03 v 0 h 249.83 l -19.02,95.6 -54.15,81.05 -81.06,54.16 -95.6,19.01 -95.6,-19.01 -81.05,-54.16 -54.16,-81.05 -19.01,-95.6 19.01,-95.6 54.16,-81.05 81.05,-54.16 95.6,-19.02 95.6,19.02 81.06,54.16 54.15,81.05 19.02,95.6 h -249.83" /><path
             id="path54"
             style="fill:none;stroke:#000000;stroke-width:9.99300003;stroke-linecap:round;stroke-linejoin:round;stroke-miterlimit:10;stroke-dasharray:none;stroke-opacity:1"
             d="m 4049.8,3630.03 -19.02,95.6 -54.15,81.05 -81.06,54.16 -95.6,19.01 -95.6,-19.01 -81.05,-54.16 -54.16,-81.05 -19.01,-95.6 19.01,-95.6 54.16,-81.05 81.05,-54.16 95.6,-19.02 95.6,19.02 81.06,54.16 54.15,81.05 19.02,95.6" /><path
             id="path56"
             style="fill:#ffffff;fill-opacity:1;fill-rule:evenodd;stroke:none"
             d="m 4049.8,3630.03 h -249.83 199.86 l -17.28,81.29 -48.85,67.23 -71.97,41.56 -82.65,8.68 -79.04,-25.68 -61.76,-55.61 -33.8,-75.92 v -83.1 l 33.8,-75.93 61.76,-55.6 79.04,-25.69 82.65,8.69 71.97,41.55 48.85,67.24 17.28,81.29 h 49.97" /><path
             id="path58"
             style="fill:none;stroke:#000000;stroke-width:9.99300003;stroke-linecap:round;stroke-linejoin:round;stroke-miterlimit:10;stroke-dasharray:none;stroke-opacity:1"
             d="m 3999.83,3630.03 -17.28,81.29 -48.85,67.23 -71.97,41.56 -82.65,8.68 -79.04,-25.68 -61.76,-55.61 -33.8,-75.92 v -83.1 l 33.8,-75.93 61.76,-55.6 79.04,-25.69 82.65,8.69 71.97,41.55 48.85,67.24 17.28,81.29" /></g></g></g></g></svg>