<?xml version="1.0" encoding="UTF-8" standalone="no"?>
<svg
   xmlns:dc="http://purl.org/dc/elements/1.1/"
   xmlns:cc="http://creativecommons.org/ns#"
   xmlns:rdf="http://www.w3.org/1999/02/22-rdf-syntax-ns#"
   xmlns:svg="http://www.w3.org/2000/svg"
   xmlns="http://www.w3.org/2000/svg"
   viewBox="0 0 1004 978.66669"
   height="978.66669"
   width="1004"
   xml:space="preserve"
   id="svg2"
   version="1.1"><metadata
     id="metadata8"><rdf:RDF><cc:Work
         rdf:about=""><dc:format>image/svg+xml</dc:format><dc:type
           rdf:resource="http://purl.org/dc/dcmitype/StillImage" /></cc:Work></rdf:RDF></metadata><defs
     id="defs6"><clipPath
       id="clipPath20"
       clipPathUnits="userSpaceOnUse"><path
         id="path18"
         d="M 0,2 V 7338 H 7528 V 2 Z" /></clipPath></defs><g
     transform="matrix(1.3333333,0,0,-1.3333333,0,978.66667)"
     id="g10"><g
       transform="scale(0.1)"
       id="g12"><g
         id="g14"><g
           clip-path="url(#clipPath20)"
           id="g16"><path
             id="path22"
             style="fill:none;stroke:#000000;stroke-width:9.99300003;stroke-linecap:round;stroke-linejoin:round;stroke-miterlimit:10;stroke-dasharray:none;stroke-opacity:1"
             d="M 3799.97,3630.03 6947.77,6777.82 3799.97,3630.03 6947.77,482.234 3799.97,3630.03 652.176,482.234 3799.97,3630.03 652.176,6777.82 3799.97,3630.03" /><path
             id="path24"
             style="fill:none;stroke:#000000;stroke-width:9.99300003;stroke-linecap:round;stroke-linejoin:round;stroke-miterlimit:10;stroke-dasharray:none;stroke-opacity:1"
             d="M 6797.87,6627.93 V 632.129 H 802.07 V 6627.93 h 5995.8 L 6939.2,6486.61 6797.87,6345.29 6939.2,6203.96 6797.87,6062.64 6939.2,5921.32 6797.87,5779.99 6939.2,5638.67 6797.87,5497.35 6939.2,5356.03 6797.87,5214.7 6939.2,5073.38 6797.87,4932.06 6939.2,4790.74 6797.87,4649.41 6939.2,4508.09 6797.87,4366.77 6939.2,4225.45 6797.87,4084.13 6939.2,3942.8 6797.87,3801.48 6939.2,3660.16 6797.87,3518.84 6939.2,3377.52 6797.87,3236.19 6939.2,3094.87 6797.87,2953.55 6939.2,2812.22 6797.87,2670.9 6939.2,2529.58 6797.87,2388.26 6939.2,2246.93 6797.87,2105.61 6939.2,1964.29 6797.87,1822.97 6939.2,1681.64 6797.87,1540.32 6939.2,1399 6797.87,1257.68" /><path
             id="path26"
             style="fill:none;stroke:#000000;stroke-width:9.99300003;stroke-linecap:round;stroke-linejoin:round;stroke-miterlimit:10;stroke-dasharray:none;stroke-opacity:1"
             d="M 6797.87,1257.68 6939.2,1116.36 6797.87,975.035 6939.2,833.711 6797.87,692.391" /><path
             id="path28"
             style="fill:none;stroke:#000000;stroke-width:9.99300003;stroke-linecap:round;stroke-linejoin:round;stroke-miterlimit:10;stroke-dasharray:none;stroke-opacity:1"
             d="m 802.07,6627.93 141.325,141.32 141.315,-141.32 141.33,141.32 141.32,-141.32 141.32,141.32 141.33,-141.32 141.32,141.32 141.32,-141.32 141.32,141.32 141.33,-141.32 141.32,141.32 141.32,-141.32 141.32,141.32 141.33,-141.32 141.32,141.32 141.32,-141.32 141.32,141.32 141.33,-141.32 141.32,141.32 141.32,-141.32 141.32,141.32 141.32,-141.32 141.33,141.32 141.32,-141.32 141.32,141.32 141.32,-141.32 141.33,141.32 141.32,-141.32 141.32,141.32 141.32,-141.32 141.33,141.32 141.32,-141.32 141.32,141.32 141.32,-141.32 141.33,141.32 141.32,-141.32 141.32,141.32 141.32,-141.32 141.32,141.32 141.32,-141.32 141.33,141.32 141.32,-141.32" /><path
             id="path30"
             style="fill:none;stroke:#000000;stroke-width:9.99300003;stroke-linecap:round;stroke-linejoin:round;stroke-miterlimit:10;stroke-dasharray:none;stroke-opacity:1"
             d="M 6797.87,632.129 6656.55,490.805 6515.23,632.129 6373.91,490.805 6232.58,632.129 6091.26,490.805 5949.94,632.129 5808.62,490.805 5667.29,632.129 5525.97,490.805 5384.65,632.129 5243.33,490.805 5102,632.129 4960.68,490.805 4819.36,632.129 4678.04,490.805 4536.71,632.129 4395.39,490.805 4254.07,632.129 4112.75,490.805 3971.43,632.129 3830.1,490.805 3688.78,632.129 3547.46,490.805 3406.14,632.129 3264.81,490.805 3123.49,632.129 2982.17,490.805 2840.85,632.129 2699.52,490.805 2558.2,632.129 2416.88,490.805 2275.55,632.129 2134.23,490.805 1992.91,632.129 1851.59,490.805 1710.27,632.129 1568.95,490.805 1427.62,632.129 1286.3,490.805 1144.98,632.129 1003.66,490.805 862.332,632.129" /><path
             id="path32"
             style="fill:none;stroke:#000000;stroke-width:9.99300003;stroke-linecap:round;stroke-linejoin:round;stroke-miterlimit:10;stroke-dasharray:none;stroke-opacity:1"
             d="m 802.07,632.129 -141.32,141.32 141.32,141.324 -141.32,141.317 141.32,141.33 -141.32,141.32 141.32,141.32 -141.32,141.32 141.32,141.33 -141.32,141.32 141.32,141.32 -141.32,141.33 141.32,141.32 -141.32,141.32 141.32,141.32 -141.32,141.32 141.32,141.33 -141.32,141.32 141.32,141.32 -141.32,141.32 141.32,141.32 -141.32,141.33 141.32,141.32 -141.32,141.32 141.32,141.32 -141.32,141.33 141.32,141.32 -141.32,141.32 141.32,141.33 -141.32,141.32 141.32,141.32 -141.32,141.32 141.32,141.33 -141.32,141.32 141.32,141.32 -141.32,141.32 141.32,141.32 -141.32,141.32 141.32,141.33 -141.32,141.32 141.32,141.32 -141.32,141.32 141.32,141.33" /><path
             id="path34"
             style="fill:none;stroke:#000000;stroke-width:9.99300003;stroke-linecap:round;stroke-linejoin:round;stroke-miterlimit:10;stroke-dasharray:none;stroke-opacity:1"
             d="M 6947.77,6777.82 V 482.234 H 652.176 V 6777.82 H 6947.77" /><path
             id="path36"
             style="fill:none;stroke:#000000;stroke-width:9.99300003;stroke-linecap:round;stroke-linejoin:round;stroke-miterlimit:10;stroke-dasharray:none;stroke-opacity:1"
             d="m 2800.67,2630.73 v 1998.6 h 1998.6 v -1998.6 h -1998.6" /><path
             id="path38"
             style="fill:none;stroke:#000000;stroke-width:9.99300003;stroke-linecap:round;stroke-linejoin:round;stroke-miterlimit:10;stroke-dasharray:none;stroke-opacity:1"
             d="M 3799.97,2216.8 2386.75,3630.03 3799.97,5043.25 5213.2,3630.03 3799.97,2216.8" /><path
             id="path40"
             style="fill:none;stroke:#000000;stroke-width:9.99300003;stroke-linecap:round;stroke-linejoin:round;stroke-miterlimit:10;stroke-dasharray:none;stroke-opacity:1"
             d="M 2750.71,2580.76 V 4679.29 H 4849.24 V 2580.76 H 2750.71" /><path
             id="path42"
             style="fill:none;stroke:#000000;stroke-width:9.99300003;stroke-linecap:round;stroke-linejoin:round;stroke-miterlimit:10;stroke-dasharray:none;stroke-opacity:1"
             d="M 3799.97,2146.14 2316.09,3630.03 3799.97,5113.91 5283.86,3630.03 3799.97,2146.14" /><path
             id="path44"
             style="fill:none;stroke:#000000;stroke-width:9.99300003;stroke-linecap:round;stroke-linejoin:round;stroke-miterlimit:10;stroke-dasharray:none;stroke-opacity:1"
             d="m 2301.02,2131.08 v 2997.9 h 2997.9 v -2997.9 h -2997.9" /><path
             id="path46"
             style="fill:none;stroke:#000000;stroke-width:9.99300003;stroke-linecap:round;stroke-linejoin:round;stroke-miterlimit:10;stroke-dasharray:none;stroke-opacity:1"
             d="M 3799.97,1510.19 1680.14,3630.03 3799.97,5749.86 5919.81,3630.03 3799.97,1510.19" /><path
             id="path48"
             style="fill:none;stroke:#000000;stroke-width:9.99300003;stroke-linecap:round;stroke-linejoin:round;stroke-miterlimit:10;stroke-dasharray:none;stroke-opacity:1"
             d="M 2251.06,2081.11 V 5178.95 H 5348.89 V 2081.11 H 2251.06" /><path
             id="path50"
             style="fill:none;stroke:#000000;stroke-width:9.99300003;stroke-linecap:round;stroke-linejoin:round;stroke-miterlimit:10;stroke-dasharray:none;stroke-opacity:1"
             d="m 3799.97,1439.53 -2190.49,2190.5 2190.49,2190.5 2190.5,-2190.5 -2190.5,-2190.5" /><path
             id="path52"
             style="fill:none;stroke:#000000;stroke-width:9.99300003;stroke-linecap:round;stroke-linejoin:round;stroke-miterlimit:10;stroke-dasharray:none;stroke-opacity:1"
             d="M 1401.65,1231.71 V 6028.35 H 6198.29 V 1231.71 H 1401.65" /><path
             id="path54"
             style="fill:none;stroke:#000000;stroke-width:9.99300003;stroke-linecap:round;stroke-linejoin:round;stroke-miterlimit:10;stroke-dasharray:none;stroke-opacity:1"
             d="M 3799.97,238.293 408.234,3630.03 3799.97,7021.77 7191.71,3630.03 3799.97,238.293" /><path
             id="path56"
             style="fill:none;stroke:#000000;stroke-width:9.99300003;stroke-linecap:round;stroke-linejoin:round;stroke-miterlimit:10;stroke-dasharray:none;stroke-opacity:1"
             d="m 1301.72,1131.78 v 4996.5 h 4996.5 v -4996.5 h -4996.5" /><path
             id="path58"
             style="fill:none;stroke:#000000;stroke-width:9.99300003;stroke-linecap:round;stroke-linejoin:round;stroke-miterlimit:10;stroke-dasharray:none;stroke-opacity:1"
             d="M 3799.97,96.9688 266.914,3630.03 3799.97,7163.09 7333.03,3630.03 3799.97,96.9688" /><path
             id="path60"
             style="fill:none;stroke:#000000;stroke-width:9.99300003;stroke-linecap:round;stroke-linejoin:round;stroke-miterlimit:10;stroke-dasharray:none;stroke-opacity:1"
             d="m 3799.97,3630.03 304.69,15.52 301.54,46.41 295.26,76.82 285.92,106.43 273.62,134.93 258.5,162.05 240.68,187.48 220.39,210.97 197.8,232.28 173.17,251.18 146.74,267.48 118.8,281.01 -304.69,-15.53 -301.54,-46.41 -295.26,-76.81 -285.92,-106.43 -273.62,-134.94 -258.5,-162.05 -240.68,-187.48 -220.39,-210.97 -197.8,-232.28 -173.16,-251.17 -146.75,-267.48 -118.8,-281.01 -89.62,-291.63 -59.52,-299.22 -28.8,-303.73 2.22,-305.07 33.21,-303.28 63.87,-298.33 93.85,-290.29 122.87,-279.25 150.62,-265.316 176.81,-248.633 201.16,-229.375 223.42,-207.746 89.63,291.629 59.52,299.223 28.8,303.728 -2.22,305.08 -33.22,303.27 -63.86,298.33" /><path
             id="path62"
             style="fill:none;stroke:#000000;stroke-width:9.99300003;stroke-linecap:round;stroke-linejoin:round;stroke-miterlimit:10;stroke-dasharray:none;stroke-opacity:1"
             d="m 4768.71,2109.42 -93.86,290.29 -122.87,279.25 -150.62,265.31 -176.8,248.64 -201.16,229.38 -223.43,207.74 -243.38,183.96 -260.83,158.27 -275.55,130.94 -287.44,102.26 -296.35,72.52 -302.18,42.02 -304.88,11.09 -304.43,-19.96 -300.84,-50.79 -294.106,-81.1 -284.343,-110.58 -271.633,-138.9 243.387,-183.96 260.824,-158.27 275.561,-130.94 287.43,-102.26 296.35,-72.52 302.18,-42.02 304.89,-11.09 304.43,19.96 300.83,50.79 294.11,81.1 284.34,110.58 271.63,138.9 256.11,165.79 237.94,190.96 217.28,214.15 194.41,235.13 169.49,253.67 142.84,269.59 114.7,282.7 85.37,292.9 55.16,300.06 24.38,304.11 -6.65,305.02 -37.62,302.76" /><path
             id="path64"
             style="fill:none;stroke:#000000;stroke-width:9.99300003;stroke-linecap:round;stroke-linejoin:round;stroke-miterlimit:10;stroke-dasharray:none;stroke-opacity:1"
             d="m 5253.38,6746.87 -256.11,-165.8 -237.93,-190.96 -217.3,-214.15 -194.4,-235.13 -169.5,-253.67 -142.83,-269.59 -114.7,-282.7 -85.38,-292.9 -55.16,-300.06 -24.37,-304.11 6.65,-305.01 37.62,-302.76 68.2,-297.37 98.06,-288.89 126.93,-277.44 154.46,-263.1 180.4,-246.03 204.47,-226.43 226.43,-204.47 246.03,-180.4 263.1,-154.46 277.43,-126.92 288.9,-98.07 297.37,-68.2 -68.2,297.37 -98.07,288.9 -126.92,277.43 -154.46,263.1 -180.4,246.03 -204.47,226.43 -226.43,204.47 -246.03,180.4 -263.1,154.46 -277.44,126.93 -288.89,98.06 -297.37,68.2 -302.76,37.62 -305.01,6.65 -304.11,-24.37 -300.06,-55.16 -292.9,-85.38 -282.7,-114.7" /><path
             id="path66"
             style="fill:none;stroke:#000000;stroke-width:9.99300003;stroke-linecap:round;stroke-linejoin:round;stroke-miterlimit:10;stroke-dasharray:none;stroke-opacity:1"
             d="m 2012.43,3394.69 -269.59,-142.83 -253.67,-169.5 -235.13,-194.4 -214.15,-217.3 -190.964,-237.93 -165.793,-256.1 302.762,-37.63 305.015,-6.65 304.11,24.38 300.06,55.16 292.9,85.37 282.7,114.7 269.59,142.84 253.67,169.49 235.13,194.41 214.15,217.29 190.96,237.93 165.79,256.11 138.91,271.63 110.57,284.34 81.1,294.11 50.79,300.84 19.96,304.43 -11.09,304.88 -42.02,302.18 -72.52,296.35 -102.26,287.44 -130.94,275.56 -158.27,260.82 -183.96,243.38 -138.9,-271.63 -110.58,-284.34 -81.1,-294.11 -50.79,-300.83 -19.96,-304.44 11.09,-304.88 42.02,-302.18 72.52,-296.35 102.26,-287.44 130.94,-275.55 158.27,-260.83 183.96,-243.38" /><path
             id="path68"
             style="fill:none;stroke:#000000;stroke-width:9.99300003;stroke-linecap:round;stroke-linejoin:round;stroke-miterlimit:10;stroke-dasharray:none;stroke-opacity:1"
             d="m 3799.97,3630.03 207.74,-223.43 229.38,-201.16 248.64,-176.8 265.31,-150.62 279.25,-122.87 290.29,-93.86 298.33,-63.86 303.27,-33.22 305.08,-2.21 303.73,28.79 299.22,59.52 291.63,89.63 -207.75,223.43 -229.37,201.15 -248.63,176.81 -265.32,150.62 -279.25,122.87 -290.29,93.85 -298.33,63.87 -303.27,33.21 -305.08,2.22 -303.73,-28.8 -299.22,-59.52 -291.63,-89.62 -281.01,-118.8 -267.47,-146.74 -251.18,-173.17 -232.28,-197.8 -210.97,-220.39 -187.48,-240.68 -162.05,-258.49 -134.94,-273.63 -106.42,-285.92 -76.82,-295.26 -46.41,-301.53 -15.53,-304.698 281.01,118.801 267.48,146.737 251.18,173.17 232.28,197.8 210.97,220.39 187.48,240.68" /><path
             id="path70"
             style="fill:none;stroke:#000000;stroke-width:9.99300003;stroke-linecap:round;stroke-linejoin:round;stroke-miterlimit:10;stroke-dasharray:none;stroke-opacity:1"
             d="m 3257.81,1910.5 162.05,258.5 134.93,273.62 106.43,285.92 76.82,295.26 46.41,301.54 15.52,304.69 -15.52,304.69 -46.41,301.54 -76.82,295.26 -106.43,285.92 -134.93,273.62 -162.05,258.49 -187.48,240.69 -210.97,220.38 -232.28,197.8 -251.18,173.17 -267.48,146.75 -281.01,118.79 15.53,-304.69 46.41,-301.53 76.82,-295.26 106.42,-285.92 134.94,-273.63 162.05,-258.49 187.48,-240.69 210.97,-220.38 232.28,-197.8 251.18,-173.17 267.47,-146.74 281.01,-118.8 291.63,-89.62 299.22,-59.52 303.73,-28.8 305.08,2.21 303.27,33.22 298.33,63.86 290.29,93.86 279.25,122.87 265.32,150.62 248.63,176.8 229.37,201.16 207.75,223.43" /><path
             id="path72"
             style="fill:none;stroke:#000000;stroke-width:9.99300003;stroke-linecap:round;stroke-linejoin:round;stroke-miterlimit:10;stroke-dasharray:none;stroke-opacity:1"
             d="m 7121.84,4520.12 -291.63,89.62 -299.22,59.52 -303.73,28.8 -305.08,-2.22 -303.27,-33.21 -298.33,-63.86 -290.29,-93.86 -279.25,-122.87 -265.31,-150.62 -248.64,-176.81 -229.38,-201.15 -207.74,-223.43 -183.96,-243.39 -158.27,-260.82 -130.94,-275.56 -102.26,-287.44 -72.52,-296.34 -42.02,-302.18 -11.09,-304.89 19.96,-304.43 50.79,-300.83 81.1,-294.107 110.58,-284.344 138.9,-271.633 183.96,243.383 158.27,260.824 130.94,275.559 102.26,287.438 72.52,296.34 42.02,302.18 11.09,304.89 -19.96,304.43 -50.79,300.83 -81.1,294.11 -110.57,284.34 -138.91,271.64 -165.79,256.11 -190.96,237.93 -214.15,217.29 -235.13,194.41 -253.67,169.49 -269.59,142.84" /><path
             id="path74"
             style="fill:none;stroke:#000000;stroke-width:9.99300003;stroke-linecap:round;stroke-linejoin:round;stroke-miterlimit:10;stroke-dasharray:none;stroke-opacity:1"
             d="m 2470.68,4848.1 -282.7,114.7 -292.9,85.37 -300.06,55.16 -304.11,24.38 -305.015,-6.66 -302.762,-37.62 165.793,-256.11 190.964,-237.93 214.15,-217.29 235.13,-194.4 253.67,-169.5 269.59,-142.84 282.7,-114.7 292.9,-85.37 300.06,-55.16 304.11,-24.38 305.01,6.66 302.76,37.62 297.37,68.2 288.89,98.06 277.44,126.92 263.1,154.47 246.03,180.39 226.43,204.48 204.47,226.43 180.4,246.03 154.46,263.1 126.92,277.43 98.07,288.9 68.2,297.36 -297.37,-68.19 -288.9,-98.07 -277.43,-126.92 -263.1,-154.46 -246.03,-180.4 -226.43,-204.47 -204.47,-226.43 -180.4,-246.04 -154.46,-263.09 -126.93,-277.44 -98.06,-288.9 -68.2,-297.36" /><path
             id="path76"
             style="fill:none;stroke:#000000;stroke-width:9.99300003;stroke-linecap:round;stroke-linejoin:round;stroke-miterlimit:10;stroke-dasharray:none;stroke-opacity:1"
             d="m 3799.97,3630.03 -37.62,-302.76 -6.65,-305.02 24.37,-304.11 55.16,-300.05 85.38,-292.9 114.7,-282.71 142.83,-269.58 169.5,-253.67 194.4,-235.13 217.3,-214.159 237.93,-190.961 256.11,-165.789 37.62,302.758 6.65,305.011 -24.38,304.11 -55.16,300.06 -85.37,292.9 -114.7,282.71 -142.84,269.58 -169.49,253.67 -194.41,235.13 -217.28,214.16 -237.94,190.96 -256.11,165.79 -271.63,138.9 -284.34,110.57 -294.11,81.11 -300.83,50.79 -304.43,19.96 -304.89,-11.1 -302.18,-42.02 -296.35,-72.51 -287.43,-102.26 -275.561,-130.94 -260.824,-158.28 -243.387,-183.95 271.633,-138.91 284.343,-110.57 294.106,-81.11 300.84,-50.79 304.43,-19.95 304.88,11.09" /><path
             id="path78"
             style="fill:none;stroke:#000000;stroke-width:9.99300003;stroke-linecap:round;stroke-linejoin:round;stroke-miterlimit:10;stroke-dasharray:none;stroke-opacity:1"
             d="m 2134.24,2940.06 302.18,42.02 296.35,72.52 287.44,102.26 275.55,130.94 260.83,158.27 243.38,183.96 223.43,207.74 201.16,229.38 176.8,248.63 150.62,265.32 122.87,279.25 93.86,290.29 63.86,298.33 33.22,303.27 2.22,305.08 -28.8,303.72 -59.52,299.23 -89.63,291.62 -223.42,-207.74 -201.16,-229.38 -176.81,-248.63 -150.62,-265.32 -122.87,-279.24 -93.85,-290.29 -63.87,-298.33 -33.21,-303.28 -2.22,-305.07 28.8,-303.73 59.52,-299.22 89.62,-291.63 118.8,-281.01 146.75,-267.48 173.16,-251.18 197.8,-232.27 220.39,-210.98 240.68,-187.48 258.5,-162.04 273.62,-134.94 285.92,-106.43 295.26,-76.81 301.54,-46.41 304.69,-15.53" /><path
             id="path80"
             style="fill:none;stroke:#000000;stroke-width:9.99300003;stroke-linecap:round;stroke-linejoin:round;stroke-miterlimit:10;stroke-dasharray:none;stroke-opacity:1"
             d="m 6617.08,1657.47 -118.8,281.01 -146.74,267.48 -173.17,251.17 -197.8,232.28 -220.39,210.97 -240.68,187.48 -258.5,162.05 -273.62,134.94 -285.92,106.43 -295.26,76.81 -301.54,46.41 -304.69,15.53 -304.69,-15.53 -301.54,-46.41 -295.26,-76.81 -285.91,-106.43 -273.63,-134.94 -258.49,-162.05 -240.69,-187.48 -220.38,-210.97 -197.8,-232.28 -173.17,-251.17 -146.75,-267.48 -118.793,-281.01 304.693,15.53 301.53,46.41 295.26,76.81 285.92,106.43 273.63,134.94 258.49,162.04 240.69,187.48 220.38,210.98 197.8,232.27 173.17,251.18 146.74,267.48 118.8,281.01 89.62,291.63 59.52,299.22 28.8,303.73 -2.21,305.07 -33.22,303.28 -63.86,298.33" /><path
             id="path82"
             style="fill:none;stroke:#000000;stroke-width:9.99300003;stroke-linecap:round;stroke-linejoin:round;stroke-miterlimit:10;stroke-dasharray:none;stroke-opacity:1"
             d="m 3878.62,5431.29 -93.86,290.29 -122.87,279.24 -150.62,265.32 -176.8,248.63 -201.16,229.38 -223.43,207.74 -89.62,-291.62 -59.52,-299.23 -28.8,-303.72 2.22,-305.08 33.21,-303.27 63.86,-298.33 93.86,-290.29 122.87,-279.25 150.62,-265.32 176.81,-248.63 201.15,-229.38 223.43,-207.74 243.39,-183.96 260.82,-158.27 275.56,-130.94 287.44,-102.26 296.34,-72.52 302.18,-42.02 304.89,-11.09 304.43,19.95 300.83,50.79 294.11,81.11 284.34,110.57 271.63,138.91 -243.38,183.95 -260.82,158.28 -275.56,130.94 -287.44,102.26 -296.34,72.51 -302.18,42.02 -304.89,11.1 -304.43,-19.96 -300.83,-50.79 -294.11,-81.11 -284.34,-110.57 -271.64,-138.9" /><path
             id="path84"
             style="fill:none;stroke:#000000;stroke-width:9.99300003;stroke-linecap:round;stroke-linejoin:round;stroke-miterlimit:10;stroke-dasharray:none;stroke-opacity:1"
             d="m 3799.97,3630.03 -256.11,-165.79 -237.93,-190.96 -217.29,-214.16 -194.4,-235.13 -169.5,-253.67 -142.84,-269.58 -114.7,-282.71 -85.37,-292.9 -55.16,-300.06 -24.38,-304.11 6.66,-305.011 37.62,-302.758 256.11,165.789 237.93,190.961 217.29,214.159 194.4,235.13 169.5,253.67 142.84,269.58 114.7,282.71 85.37,292.9 55.16,300.05 24.38,304.11 -6.66,305.02 -37.62,302.76 -68.2,297.36 -98.06,288.9 -126.92,277.44 -154.47,263.09 -180.39,246.04 -204.48,226.43 -226.42,204.47 -246.04,180.4 -263.1,154.46 -277.43,126.92 -288.9,98.07 -297.36,68.19 68.19,-297.36 98.07,-288.9 126.92,-277.43 154.46,-263.1 180.4,-246.03 204.47,-226.43" /><path
             id="path86"
             style="fill:none;stroke:#000000;stroke-width:9.99300003;stroke-linecap:round;stroke-linejoin:round;stroke-miterlimit:10;stroke-dasharray:none;stroke-opacity:1"
             d="m 2200.71,4462.55 226.43,-204.48 246.04,-180.39 263.1,-154.47 277.43,-126.92 288.9,-98.06 297.36,-68.2 302.76,-37.62 305.02,-6.66 304.11,24.38 300.05,55.16 292.9,85.37 282.71,114.7 269.58,142.84 253.67,169.5 235.13,194.4 214.16,217.29 190.96,237.93 165.79,256.11 -302.76,37.62 -305.01,6.66 -304.11,-24.38 -300.06,-55.16 -292.9,-85.37 -282.71,-114.7 -269.58,-142.84 -253.67,-169.49 -235.13,-194.41 -214.16,-217.29 -190.96,-237.93 -165.79,-256.11 -138.9,-271.64 -110.57,-284.34 -81.11,-294.11 -50.79,-300.83 -19.95,-304.43 11.09,-304.89 42.02,-302.18 72.51,-296.34 102.26,-287.438 130.94,-275.559 158.28,-260.824 183.96,-243.383" /><path
             id="path88"
             style="fill:none;stroke:#000000;stroke-width:9.99300003;stroke-linecap:round;stroke-linejoin:round;stroke-miterlimit:10;stroke-dasharray:none;stroke-opacity:1"
             d="m 4099.71,204.066 138.9,271.633 110.57,284.344 81.11,294.107 50.79,300.83 19.95,304.43 -11.09,304.89 -42.02,302.18 -72.51,296.34 -102.27,287.44 -130.94,275.56 -158.27,260.82 -183.96,243.39 -207.74,223.43 -229.38,201.15 -248.63,176.81 -265.32,150.62 -279.25,122.87 -290.29,93.86 -298.32,63.86 -303.28,33.21 -305.08,2.22 -303.72,-28.8 -299.23,-59.52 -291.625,-89.62 207.743,-223.43 229.379,-201.16 248.633,-176.8 265.32,-150.62 279.25,-122.87 290.28,-93.86 298.33,-63.86 303.28,-33.22 305.07,-2.21 303.73,28.8 299.23,59.52 291.62,89.62 281.01,118.8 267.48,146.74 251.18,173.17 232.27,197.8 210.98,220.38 187.48,240.69" /><path
             id="path90"
             style="fill:none;stroke:#000000;stroke-width:9.99300003;stroke-linecap:round;stroke-linejoin:round;stroke-miterlimit:10;stroke-dasharray:none;stroke-opacity:1"
             d="m 5230.37,4727.61 162.04,258.49 134.94,273.63 106.43,285.92 76.81,295.26 46.42,301.53 15.52,304.69 -281.01,-118.79 -267.48,-146.75 -251.17,-173.17 -232.28,-197.8 -210.97,-220.38 -187.48,-240.69 -162.05,-258.49 -134.94,-273.62 -106.43,-285.92 -76.81,-295.26 -46.41,-301.54 -15.53,-304.69 15.53,-304.69 46.41,-301.54 76.81,-295.26 106.43,-285.92 134.94,-273.62 162.05,-258.5 187.48,-240.68 210.97,-220.39 232.28,-197.8 251.17,-173.17 267.48,-146.737 281.01,-118.801 -15.52,304.698 -46.42,301.53 -76.81,295.26 -106.43,285.92 -134.94,273.63 -162.04,258.49 -187.48,240.68 -210.98,220.39 -232.27,197.8 -251.18,173.17 -267.48,146.74 -281.01,118.8" /><path
             id="path92"
             style="fill:none;stroke:#000000;stroke-width:9.99300003;stroke-linecap:round;stroke-linejoin:round;stroke-miterlimit:10;stroke-dasharray:none;stroke-opacity:1"
             d="m 3799.97,3630.03 -291.62,89.62 -299.23,59.52 -303.73,28.8 -305.07,-2.22 -303.28,-33.21 -298.33,-63.87 -290.28,-93.85 -279.25,-122.87 -265.32,-150.62 -248.633,-176.81 -229.379,-201.15 -207.743,-223.43 291.625,-89.63 299.23,-59.52 303.72,-28.79 305.08,2.21 303.28,33.22 298.32,63.86 290.29,93.86 279.25,122.87 265.32,150.62 248.63,176.8 229.38,201.16 207.74,223.43 183.96,243.38 158.27,260.83 130.94,275.55 102.27,287.44 72.51,296.35 42.02,302.18 11.09,304.88 -19.95,304.44 -50.79,300.83 -81.11,294.11 -110.57,284.34 -138.9,271.63 -183.96,-243.38 -158.28,-260.82 -130.94,-275.56 -102.26,-287.44 -72.51,-296.35 -42.02,-302.18" /><path
             id="path94"
             style="fill:none;stroke:#000000;stroke-width:9.99300003;stroke-linecap:round;stroke-linejoin:round;stroke-miterlimit:10;stroke-dasharray:none;stroke-opacity:1"
             d="m 3409.74,5390.26 -11.09,-304.88 19.95,-304.43 50.79,-300.84 81.11,-294.11 110.57,-284.34 138.9,-271.63 165.79,-256.11 190.96,-237.93 214.16,-217.29 235.13,-194.41 253.67,-169.49 269.58,-142.84 282.71,-114.7 292.9,-85.37 300.06,-55.16 304.11,-24.38 305.01,6.65 302.76,37.63 -165.79,256.1 -190.96,237.93 -214.16,217.3 -235.13,194.4 -253.67,169.5 -269.58,142.83 -282.71,114.7 -292.9,85.38 -300.05,55.16 -304.11,24.37 -305.02,-6.65 -302.76,-37.62 -297.36,-68.2 -288.9,-98.06 -277.43,-126.93 -263.1,-154.46 -246.04,-180.4 -226.43,-204.47 -204.47,-226.43 -180.4,-246.03 -154.46,-263.1 -126.92,-277.43 -98.07,-288.9 -68.19,-297.37" /><path
             id="path96"
             style="fill:none;stroke:#000000;stroke-width:9.99300003;stroke-linecap:round;stroke-linejoin:round;stroke-miterlimit:10;stroke-dasharray:none;stroke-opacity:1"
             d="m 1368.2,1198.25 297.36,68.2 288.9,98.07 277.43,126.92 263.1,154.46 246.04,180.4 226.42,204.47 204.48,226.43 180.39,246.03 154.47,263.1 126.92,277.44 98.06,288.89 68.2,297.37 37.62,302.76 6.66,305.01 -24.38,304.11 -55.16,300.06 -85.37,292.9 -114.7,282.7 -142.84,269.59 -169.5,253.67 -194.4,235.13 -217.29,214.15 -237.93,190.96 -256.11,165.8 -37.62,-302.76 -6.66,-305.02 24.38,-304.11 55.16,-300.06 85.37,-292.9 114.7,-282.7 142.84,-269.59 169.5,-253.67 194.4,-235.13 217.29,-214.15 237.93,-190.96 256.11,-165.79 271.64,-138.9 284.34,-110.58 294.11,-81.1 300.83,-50.79 304.43,-19.96 304.89,11.09" /><path
             id="path98"
             style="fill:none;stroke:#000000;stroke-width:9.99300003;stroke-linecap:round;stroke-linejoin:round;stroke-miterlimit:10;stroke-dasharray:none;stroke-opacity:1"
             d="m 5560.21,3239.79 302.18,42.02 296.34,72.52 287.44,102.26 275.56,130.94 260.82,158.27 243.38,183.96 -271.63,138.9 -284.34,110.58 -294.11,81.1 -300.83,50.79 -304.43,19.96 -304.89,-11.09 -302.18,-42.02 -296.34,-72.52 -287.44,-102.26 -275.56,-130.94 -260.82,-158.27 -243.39,-183.96 -223.43,-207.74 -201.15,-229.38 -176.81,-248.64 -150.62,-265.31 -122.87,-279.25 -93.86,-290.29 -63.86,-298.33 -33.21,-303.27 -2.22,-305.08 28.8,-303.728 59.52,-299.223 89.62,-291.629 223.43,207.746 201.16,229.375 176.8,248.633 150.62,265.316 122.87,279.25 93.86,290.29 63.86,298.33 33.22,303.28 2.21,305.07 -28.8,303.73 -59.52,299.22 -89.62,291.63" /><path
             id="path100"
             style="fill:none;stroke:#000000;stroke-width:9.99300003;stroke-linecap:round;stroke-linejoin:round;stroke-miterlimit:10;stroke-dasharray:none;stroke-opacity:1"
             d="m 3799.97,3630.03 -118.8,281.01 -146.74,267.48 -173.17,251.17 -197.8,232.28 -220.38,210.97 -240.69,187.48 -258.49,162.05 -273.63,134.94 -285.92,106.43 -295.26,76.81 -301.53,46.41 -304.693,15.53 118.793,-281.01 146.75,-267.48 173.17,-251.18 197.8,-232.28 220.38,-210.97 240.69,-187.48 258.49,-162.05 273.63,-134.93 285.91,-106.43 295.26,-76.82 301.54,-46.41 304.69,-15.52 304.69,15.52 301.54,46.41 295.26,76.82 285.92,106.43 273.62,134.93 258.5,162.05 240.68,187.48 220.39,210.97 197.8,232.28 173.17,251.18 146.74,267.48 118.8,281.01 -304.69,-15.53 -301.54,-46.41 -295.26,-76.81 -285.92,-106.43 -273.62,-134.94 -258.5,-162.05" /><path
             id="path102"
             style="fill:none;stroke:#000000;stroke-width:9.99300003;stroke-linecap:round;stroke-linejoin:round;stroke-miterlimit:10;stroke-dasharray:none;stroke-opacity:1"
             d="m 4897.55,5060.42 -240.68,-187.48 -220.39,-210.97 -197.8,-232.28 -173.16,-251.17 -146.75,-267.48 -118.8,-281.01 -89.62,-291.63 -59.52,-299.22 -28.8,-303.73 2.22,-305.07 33.21,-303.28 63.87,-298.33 93.85,-290.29 122.87,-279.25 150.62,-265.316 176.81,-248.633 201.16,-229.375 223.42,-207.746 89.63,291.629 59.52,299.223 28.8,303.728 -2.22,305.08 -33.22,303.27 -63.86,298.33 -93.86,290.29 -122.87,279.25 -150.62,265.31 -176.8,248.64 -201.16,229.38 -223.43,207.74 -243.38,183.96 -260.83,158.27 -275.55,130.94 -287.44,102.26 -296.35,72.52 -302.18,42.02 -304.88,11.09 -304.43,-19.96 -300.84,-50.79 -294.106,-81.1 -284.343,-110.58 -271.633,-138.9" /><path
             id="path104"
             style="fill:none;stroke:#000000;stroke-width:9.99300003;stroke-linecap:round;stroke-linejoin:round;stroke-miterlimit:10;stroke-dasharray:none;stroke-opacity:1"
             d="m 374.008,3929.76 243.387,-183.96 260.824,-158.27 275.561,-130.94 287.43,-102.26 296.35,-72.52 302.18,-42.02 304.89,-11.09 304.43,19.96 300.83,50.79 294.11,81.1 284.34,110.58 271.63,138.9 256.11,165.79 237.94,190.96 217.28,214.15 194.41,235.13 169.49,253.67 142.84,269.59 114.7,282.7 85.37,292.9 55.16,300.06 24.38,304.11 -6.65,305.02 -37.62,302.76 -256.11,-165.8 -237.93,-190.96 -217.3,-214.15 -194.4,-235.13 -169.5,-253.67 -142.83,-269.59 -114.7,-282.7 -85.38,-292.9 -55.16,-300.06 -24.37,-304.11 6.65,-305.01 37.62,-302.76 68.2,-297.37 98.06,-288.89 126.93,-277.44 154.46,-263.1 180.4,-246.03 204.47,-226.43" /><path
             id="path106"
             style="fill:none;stroke:#000000;stroke-width:9.99300003;stroke-linecap:round;stroke-linejoin:round;stroke-miterlimit:10;stroke-dasharray:none;stroke-opacity:1"
             d="m 4632.49,2030.77 226.43,-204.47 246.03,-180.4 263.1,-154.46 277.43,-126.92 288.9,-98.07 297.37,-68.2 -68.2,297.37 -98.07,288.9 -126.92,277.43 -154.46,263.1 -180.4,246.03 -204.47,226.43 -226.43,204.47 -246.03,180.4 -263.1,154.46 -277.44,126.93 -288.89,98.06 -297.37,68.2 -302.76,37.62 -305.01,6.65 -304.11,-24.37 -300.06,-55.16 -292.9,-85.38 -282.7,-114.7 -269.59,-142.83 -253.67,-169.5 -235.13,-194.4 -214.15,-217.3 -190.964,-237.93 -165.793,-256.1 302.762,-37.63 305.015,-6.65 304.11,24.38 300.06,55.16 292.9,85.37 282.7,114.7 269.59,142.84 253.67,169.49 235.13,194.41 214.15,217.29 190.96,237.93 165.79,256.11" /><path
             id="path108"
             style="fill:none;stroke:#000000;stroke-width:9.99300003;stroke-linecap:round;stroke-linejoin:round;stroke-miterlimit:10;stroke-dasharray:none;stroke-opacity:1"
             d="m 3799.97,3630.03 138.91,271.63 110.57,284.34 81.1,294.11 50.79,300.84 19.96,304.43 -11.09,304.88 -42.02,302.18 -72.52,296.35 -102.26,287.44 -130.94,275.56 -158.27,260.82 -183.96,243.38 -138.9,-271.63 -110.58,-284.34 -81.1,-294.11 -50.79,-300.83 -19.96,-304.44 11.09,-304.88 42.02,-302.18 72.52,-296.35 102.26,-287.44 130.94,-275.55 158.27,-260.83 183.96,-243.38 207.74,-223.43 229.38,-201.16 248.64,-176.8 265.31,-150.62 279.25,-122.87 290.29,-93.86 298.33,-63.86 303.27,-33.22 305.08,-2.21 303.73,28.79 299.22,59.52 291.63,89.63 -207.75,223.43 -229.37,201.15 -248.63,176.81 -265.32,150.62 -279.25,122.87 -290.29,93.85" /><path
             id="path110"
             style="fill:none;stroke:#000000;stroke-width:9.99300003;stroke-linecap:round;stroke-linejoin:round;stroke-miterlimit:10;stroke-dasharray:none;stroke-opacity:1"
             d="m 5601.23,3708.67 -298.33,63.87 -303.27,33.21 -305.08,2.22 -303.73,-28.8 -299.22,-59.52 -291.63,-89.62 -281.01,-118.8 -267.47,-146.74 -251.18,-173.17 -232.28,-197.8 -210.97,-220.39 -187.48,-240.68 -162.05,-258.49 -134.94,-273.63 -106.42,-285.92 -76.82,-295.26 -46.41,-301.53 -15.53,-304.698 281.01,118.801 267.48,146.737 251.18,173.17 232.28,197.8 210.97,220.39 187.48,240.68 162.05,258.5 134.93,273.62 106.43,285.92 76.82,295.26 46.41,301.54 15.52,304.69 -15.52,304.69 -46.41,301.54 -76.82,295.26 -106.43,285.92 -134.93,273.62 -162.05,258.49 -187.48,240.69 -210.97,220.38 -232.28,197.8 -251.18,173.17 -267.48,146.75 -281.01,118.79" /><path
             id="path112"
             style="fill:none;stroke:#000000;stroke-width:9.99300003;stroke-linecap:round;stroke-linejoin:round;stroke-miterlimit:10;stroke-dasharray:none;stroke-opacity:1"
             d="m 1827.41,6447.13 15.53,-304.69 46.41,-301.53 76.82,-295.26 106.42,-285.92 134.94,-273.63 162.05,-258.49 187.48,-240.69 210.97,-220.38 232.28,-197.8 251.18,-173.17 267.47,-146.74 281.01,-118.8 291.63,-89.62 299.22,-59.52 303.73,-28.8 305.08,2.21 303.27,33.22 298.33,63.86 290.29,93.86 279.25,122.87 265.32,150.62 248.63,176.8 229.37,201.16 207.75,223.43 -291.63,89.62 -299.22,59.52 -303.73,28.8 -305.08,-2.22 -303.27,-33.21 -298.33,-63.86 -290.29,-93.86 L 4751.04,4382.04 4485.73,4231.42 4237.09,4054.61 4007.71,3853.46 3799.97,3630.03 3616.01,3386.64 3457.74,3125.82 3326.8,2850.26 3224.54,2562.82 3152.02,2266.48 3110,1964.3" /><path
             id="path114"
             style="fill:none;stroke:#000000;stroke-width:9.99300003;stroke-linecap:round;stroke-linejoin:round;stroke-miterlimit:10;stroke-dasharray:none;stroke-opacity:1"
             d="m 3110,1964.3 -11.09,-304.89 19.96,-304.43 50.79,-300.83 81.1,-294.107 110.58,-284.344 138.9,-271.633 183.96,243.383 158.27,260.824 130.94,275.559 102.26,287.438 72.52,296.34 42.02,302.18 11.09,304.89 -19.96,304.43 -50.79,300.83 -81.1,294.11 -110.57,284.34 -138.91,271.64 -165.79,256.11 -190.96,237.93 -214.15,217.29 -235.13,194.41 -253.67,169.49 -269.59,142.84 -282.7,114.7 -292.9,85.37 -300.06,55.16 -304.11,24.38 -305.015,-6.66 -302.762,-37.62 165.793,-256.11 190.964,-237.93 214.15,-217.29 235.13,-194.4 253.67,-169.5 269.59,-142.84 282.7,-114.7 292.9,-85.37 300.06,-55.16 304.11,-24.38 305.01,6.66 302.76,37.62" /><path
             id="path116"
             style="fill:none;stroke:#000000;stroke-width:9.99300003;stroke-linecap:round;stroke-linejoin:round;stroke-miterlimit:10;stroke-dasharray:none;stroke-opacity:1"
             d="m 3799.97,3630.03 297.37,68.2 288.89,98.06 277.44,126.92 263.1,154.47 246.03,180.39 226.43,204.48 204.47,226.43 180.4,246.03 154.46,263.1 126.92,277.43 98.07,288.9 68.2,297.36 -297.37,-68.19 -288.9,-98.07 -277.43,-126.92 -263.1,-154.46 -246.03,-180.4 -226.43,-204.47 -204.47,-226.43 -180.4,-246.04 -154.46,-263.09 -126.93,-277.44 -98.06,-288.9 -68.2,-297.36" /><path
             id="path118"
             style="fill:#ffffff;fill-opacity:1;fill-rule:evenodd;stroke:none"
             d="m 3799.97,3630.03 v 0 h 899.37 l -24.24,207.41 -71.42,196.22 -114.75,174.47 -151.89,143.3 -180.84,104.41 -200.06,59.89 -208.46,12.15 -205.65,-36.26 -191.74,-82.71 -167.5,-124.7 -134.23,-159.97 -93.72,-186.61 -48.16,-203.19 v -208.82 l 48.16,-203.19 93.72,-186.61 134.23,-159.97 167.5,-124.7 191.74,-82.71 205.65,-36.26 208.46,12.14 200.06,59.89 180.84,104.41 151.89,143.31 114.75,174.46 71.42,196.23 24.24,207.41 h -899.37" /><path
             id="path120"
             style="fill:none;stroke:#000000;stroke-width:9.99300003;stroke-linecap:round;stroke-linejoin:round;stroke-miterlimit:10;stroke-dasharray:none;stroke-opacity:1"
             d="m 4699.34,3630.03 -24.24,207.41 -71.42,196.22 -114.75,174.47 -151.89,143.3 -180.84,104.41 -200.06,59.89 -208.46,12.15 -205.65,-36.26 -191.74,-82.71 -167.5,-124.7 -134.23,-159.97 -93.72,-186.61 -48.16,-203.19 v -208.82 l 48.16,-203.19 93.72,-186.61 134.23,-159.97 167.5,-124.7 191.74,-82.71 205.65,-36.26 208.46,12.14 200.06,59.89 180.84,104.41 151.89,143.31 114.75,174.46 71.42,196.23 24.24,207.41" /><path
             id="path122"
             style="fill:#ffffff;fill-opacity:1;fill-rule:evenodd;stroke:none"
             d="m 4699.34,3630.03 h -899.37 849.41 l -24.68,203.27 -72.62,191.47 -116.32,168.52 -153.27,135.78 -181.31,95.16 -198.82,49.01 h -204.77 l -198.82,-49.01 -181.32,-95.16 -153.27,-135.78 -116.32,-168.52 -72.61,-191.47 -24.68,-203.27 24.68,-203.28 72.61,-191.46 116.32,-168.52 153.27,-135.79 181.32,-95.16 198.82,-49 h 204.77 l 198.82,49 181.31,95.16 153.27,135.79 116.32,168.52 72.62,191.46 24.68,203.28 h 49.96" /><path
             id="path124"
             style="fill:none;stroke:#000000;stroke-width:9.99300003;stroke-linecap:round;stroke-linejoin:round;stroke-miterlimit:10;stroke-dasharray:none;stroke-opacity:1"
             d="m 4649.38,3630.03 -24.68,203.27 -72.62,191.47 -116.32,168.52 -153.27,135.78 -181.31,95.16 -198.82,49.01 h -204.77 l -198.82,-49.01 -181.32,-95.16 -153.27,-135.78 -116.32,-168.52 -72.61,-191.47 -24.68,-203.27 24.68,-203.28 72.61,-191.46 116.32,-168.52 153.27,-135.79 181.32,-95.16 198.82,-49 h 204.77 l 198.82,49 181.31,95.16 153.27,135.79 116.32,168.52 72.62,191.46 24.68,203.28" /><path
             id="path126"
             style="fill:#ffffff;fill-opacity:1;fill-rule:evenodd;stroke:none"
             d="m 3799.97,3630.03 v 0 h 599.58 l -24.28,168.92 -70.9,155.24 -111.76,128.97 -143.56,92.27 -163.75,48.07 h -170.66 l -163.74,-48.07 -143.57,-92.27 -111.76,-128.97 -70.89,-155.24 -24.29,-168.92 24.29,-168.92 70.89,-155.24 111.76,-128.98 143.57,-92.26 163.74,-48.08 h 170.66 l 163.75,48.08 143.56,92.26 111.76,128.98 70.9,155.24 24.28,168.92 h -599.58" /><path
             id="path128"
             style="fill:none;stroke:#000000;stroke-width:9.99300003;stroke-linecap:round;stroke-linejoin:round;stroke-miterlimit:10;stroke-dasharray:none;stroke-opacity:1"
             d="m 4399.55,3630.03 -24.28,168.92 -70.9,155.24 -111.76,128.97 -143.56,92.27 -163.75,48.07 h -170.66 l -163.74,-48.07 -143.57,-92.27 -111.76,-128.97 -70.89,-155.24 -24.29,-168.92 24.29,-168.92 70.89,-155.24 111.76,-128.98 143.57,-92.26 163.74,-48.08 h 170.66 l 163.75,48.08 143.56,92.26 111.76,128.98 70.9,155.24 24.28,168.92" /><path
             id="path130"
             style="fill:#ffffff;fill-opacity:1;fill-rule:evenodd;stroke:none"
             d="m 4399.55,3630.03 h -599.58 549.62 l -24.42,162 -71.08,147.61 -111.44,120.09 -141.88,81.92 -159.73,36.46 -163.37,-12.25 -152.51,-59.85 -128.09,-102.15 -92.28,-135.36 -48.29,-156.55 v -163.84 l 48.29,-156.55 92.28,-135.36 128.09,-102.15 152.51,-59.86 163.37,-12.24 159.73,36.46 141.88,81.91 111.44,120.1 71.08,147.61 24.42,162 h 49.96" /><path
             id="path132"
             style="fill:none;stroke:#000000;stroke-width:9.99300003;stroke-linecap:round;stroke-linejoin:round;stroke-miterlimit:10;stroke-dasharray:none;stroke-opacity:1"
             d="m 4349.59,3630.03 -24.42,162 -71.08,147.61 -111.44,120.09 -141.88,81.92 -159.73,36.46 -163.37,-12.25 -152.51,-59.85 -128.09,-102.15 -92.28,-135.36 -48.29,-156.55 v -163.84 l 48.29,-156.55 92.28,-135.36 128.09,-102.15 152.51,-59.86 163.37,-12.24 159.73,36.46 141.88,81.91 111.44,120.1 71.08,147.61 24.42,162" /><path
             id="path134"
             style="fill:#ffffff;fill-opacity:1;fill-rule:evenodd;stroke:none"
             d="m 3799.97,3630.03 v 0 h 249.83 l -19.02,95.6 -54.15,81.05 -81.06,54.16 -95.6,19.01 -95.6,-19.01 -81.05,-54.16 -54.16,-81.05 -19.01,-95.6 19.01,-95.6 54.16,-81.05 81.05,-54.16 95.6,-19.02 95.6,19.02 81.06,54.16 54.15,81.05 19.02,95.6 h -249.83" /><path
             id="path136"
             style="fill:none;stroke:#000000;stroke-width:9.99300003;stroke-linecap:round;stroke-linejoin:round;stroke-miterlimit:10;stroke-dasharray:none;stroke-opacity:1"
             d="m 4049.8,3630.03 -19.02,95.6 -54.15,81.05 -81.06,54.16 -95.6,19.01 -95.6,-19.01 -81.05,-54.16 -54.16,-81.05 -19.01,-95.6 19.01,-95.6 54.16,-81.05 81.05,-54.16 95.6,-19.02 95.6,19.02 81.06,54.16 54.15,81.05 19.02,95.6" /><path
             id="path138"
             style="fill:#ffffff;fill-opacity:1;fill-rule:evenodd;stroke:none"
             d="m 4049.8,3630.03 h -249.83 199.86 l -17.28,81.29 -48.85,67.23 -71.97,41.56 -82.65,8.68 -79.04,-25.68 -61.76,-55.61 -33.8,-75.92 v -83.1 l 33.8,-75.93 61.76,-55.6 79.04,-25.69 82.65,8.69 71.97,41.55 48.85,67.24 17.28,81.29 h 49.97" /><path
             id="path140"
             style="fill:none;stroke:#000000;stroke-width:9.99300003;stroke-linecap:round;stroke-linejoin:round;stroke-miterlimit:10;stroke-dasharray:none;stroke-opacity:1"
             d="m 3999.83,3630.03 -17.28,81.29 -48.85,67.23 -71.97,41.56 -82.65,8.68 -79.04,-25.68 -61.76,-55.61 -33.8,-75.92 v -83.1 l 33.8,-75.93 61.76,-55.6 79.04,-25.69 82.65,8.69 71.97,41.55 48.85,67.24 17.28,81.29" /></g></g></g></g></svg>