<?xml version="1.0" encoding="UTF-8" standalone="no"?>
<svg
   xmlns:dc="http://purl.org/dc/elements/1.1/"
   xmlns:cc="http://creativecommons.org/ns#"
   xmlns:rdf="http://www.w3.org/1999/02/22-rdf-syntax-ns#"
   xmlns:svg="http://www.w3.org/2000/svg"
   xmlns="http://www.w3.org/2000/svg"
   viewBox="0 0 1004 978.66669"
   height="978.66669"
   width="1004"
   xml:space="preserve"
   id="svg2"
   version="1.1"><metadata
     id="metadata8"><rdf:RDF><cc:Work
         rdf:about=""><dc:format>image/svg+xml</dc:format><dc:type
           rdf:resource="http://purl.org/dc/dcmitype/StillImage" /></cc:Work></rdf:RDF></metadata><defs
     id="defs6"><clipPath
       id="clipPath20"
       clipPathUnits="userSpaceOnUse"><path
         id="path18"
         d="M 0,2 V 7338 H 7528 V 2 Z" /></clipPath></defs><g
     transform="matrix(1.3333333,0,0,-1.3333333,0,978.66667)"
     id="g10"><g
       transform="scale(0.1)"
       id="g12"><g
         id="g14"><g
           clip-path="url(#clipPath20)"
           id="g16"><path
             id="path22"
             style="fill:none;stroke:#000000;stroke-width:9.99300003;stroke-linecap:round;stroke-linejoin:round;stroke-miterlimit:10;stroke-dasharray:none;stroke-opacity:1"
             d="m 1301.72,1131.78 v 4996.5 h 4996.5 v -4996.5 h -4996.5" /><path
             id="path24"
             style="fill:none;stroke:#000000;stroke-width:9.99300003;stroke-linecap:round;stroke-linejoin:round;stroke-miterlimit:10;stroke-dasharray:none;stroke-opacity:1"
             d="M 3799.97,96.9688 266.914,3630.03 3799.97,7163.09 7333.03,3630.03 3799.97,96.9688" /><path
             id="path26"
             style="fill:none;stroke:#000000;stroke-width:9.99300003;stroke-linecap:round;stroke-linejoin:round;stroke-miterlimit:10;stroke-dasharray:none;stroke-opacity:1"
             d="M 1201.79,1031.85 V 6228.21 H 6398.15 V 1031.85 H 1201.79" /><path
             id="path28"
             style="fill:none;stroke:#000000;stroke-width:9.99300003;stroke-linecap:round;stroke-linejoin:round;stroke-miterlimit:10;stroke-dasharray:none;stroke-opacity:1"
             d="M 3799.97,-44.3516 125.59,3630.03 3799.97,7304.41 7474.36,3630.03 3799.97,-44.3516" /><path
             id="path30"
             style="fill:none;stroke:#000000;stroke-width:9.99300003;stroke-linecap:round;stroke-linejoin:round;stroke-miterlimit:10;stroke-dasharray:none;stroke-opacity:1"
             d="m 3799.97,3630.03 304.69,15.52 301.54,46.41 295.26,76.82 285.92,106.43 273.62,134.93 258.5,162.05 240.68,187.48 220.39,210.97 197.8,232.28 173.17,251.18 146.74,267.48 118.8,281.01 -304.69,-15.53 -301.54,-46.41 -295.26,-76.81 -285.92,-106.43 -273.62,-134.94 -258.5,-162.05 -240.68,-187.48 -220.39,-210.97 -197.8,-232.28 -173.16,-251.17 -146.75,-267.48 -118.8,-281.01 -89.62,-291.63 -59.52,-299.22 -28.8,-303.73 2.22,-305.07 33.21,-303.28 63.87,-298.33 93.85,-290.29 122.87,-279.25 150.62,-265.316 176.81,-248.633 201.16,-229.375 223.42,-207.746 89.63,291.629 59.52,299.223 28.8,303.728 -2.22,305.08 -33.22,303.27 -63.86,298.33" /><path
             id="path32"
             style="fill:none;stroke:#000000;stroke-width:9.99300003;stroke-linecap:round;stroke-linejoin:round;stroke-miterlimit:10;stroke-dasharray:none;stroke-opacity:1"
             d="m 4768.71,2109.42 -93.86,290.29 -122.87,279.25 -150.62,265.31 -176.8,248.64 -201.16,229.38 -223.43,207.74 -243.38,183.96 -260.83,158.27 -275.55,130.94 -287.44,102.26 -296.35,72.52 -302.18,42.02 -304.88,11.09 -304.43,-19.96 -300.84,-50.79 -294.106,-81.1 -284.343,-110.58 -271.633,-138.9 243.387,-183.96 260.824,-158.27 275.561,-130.94 287.43,-102.26 296.35,-72.52 302.18,-42.02 304.89,-11.09 304.43,19.96 300.83,50.79 294.11,81.1 284.34,110.58 271.63,138.9 256.11,165.79 237.94,190.96 217.28,214.15 194.41,235.13 169.49,253.67 142.84,269.59 114.7,282.7 85.37,292.9 55.16,300.06 24.38,304.11 -6.65,305.02 -37.62,302.76" /><path
             id="path34"
             style="fill:none;stroke:#000000;stroke-width:9.99300003;stroke-linecap:round;stroke-linejoin:round;stroke-miterlimit:10;stroke-dasharray:none;stroke-opacity:1"
             d="m 5253.38,6746.87 -256.11,-165.8 -237.93,-190.96 -217.3,-214.15 -194.4,-235.13 -169.5,-253.67 -142.83,-269.59 -114.7,-282.7 -85.38,-292.9 -55.16,-300.06 -24.37,-304.11 6.65,-305.01 37.62,-302.76 68.2,-297.37 98.06,-288.89 126.93,-277.44 154.46,-263.1 180.4,-246.03 204.47,-226.43 226.43,-204.47 246.03,-180.4 263.1,-154.46 277.43,-126.92 288.9,-98.07 297.37,-68.2 -68.2,297.37 -98.07,288.9 -126.92,277.43 -154.46,263.1 -180.4,246.03 -204.47,226.43 -226.43,204.47 -246.03,180.4 -263.1,154.46 -277.44,126.93 -288.89,98.06 -297.37,68.2 -302.76,37.62 -305.01,6.65 -304.11,-24.37 -300.06,-55.16 -292.9,-85.38 -282.7,-114.7" /><path
             id="path36"
             style="fill:none;stroke:#000000;stroke-width:9.99300003;stroke-linecap:round;stroke-linejoin:round;stroke-miterlimit:10;stroke-dasharray:none;stroke-opacity:1"
             d="m 2012.43,3394.69 -269.59,-142.83 -253.67,-169.5 -235.13,-194.4 -214.15,-217.3 -190.964,-237.93 -165.793,-256.1 302.762,-37.63 305.015,-6.65 304.11,24.38 300.06,55.16 292.9,85.37 282.7,114.7 269.59,142.84 253.67,169.49 235.13,194.41 214.15,217.29 190.96,237.93 165.79,256.11 138.91,271.63 110.57,284.34 81.1,294.11 50.79,300.84 19.96,304.43 -11.09,304.88 -42.02,302.18 -72.52,296.35 -102.26,287.44 -130.94,275.56 -158.27,260.82 -183.96,243.38 -138.9,-271.63 -110.58,-284.34 -81.1,-294.11 -50.79,-300.83 -19.96,-304.44 11.09,-304.88 42.02,-302.18 72.52,-296.35 102.26,-287.44 130.94,-275.55 158.27,-260.83 183.96,-243.38" /><path
             id="path38"
             style="fill:none;stroke:#000000;stroke-width:9.99300003;stroke-linecap:round;stroke-linejoin:round;stroke-miterlimit:10;stroke-dasharray:none;stroke-opacity:1"
             d="m 3799.97,3630.03 207.74,-223.43 229.38,-201.16 248.64,-176.8 265.31,-150.62 279.25,-122.87 290.29,-93.86 298.33,-63.86 303.27,-33.22 305.08,-2.21 303.73,28.79 299.22,59.52 291.63,89.63 -207.75,223.43 -229.37,201.15 -248.63,176.81 -265.32,150.62 -279.25,122.87 -290.29,93.85 -298.33,63.87 -303.27,33.21 -305.08,2.22 -303.73,-28.8 -299.22,-59.52 -291.63,-89.62 -281.01,-118.8 -267.47,-146.74 -251.18,-173.17 -232.28,-197.8 -210.97,-220.39 -187.48,-240.68 -162.05,-258.49 -134.94,-273.63 -106.42,-285.92 -76.82,-295.26 -46.41,-301.53 -15.53,-304.698 281.01,118.801 267.48,146.737 251.18,173.17 232.28,197.8 210.97,220.39 187.48,240.68" /><path
             id="path40"
             style="fill:none;stroke:#000000;stroke-width:9.99300003;stroke-linecap:round;stroke-linejoin:round;stroke-miterlimit:10;stroke-dasharray:none;stroke-opacity:1"
             d="m 3257.81,1910.5 162.05,258.5 134.93,273.62 106.43,285.92 76.82,295.26 46.41,301.54 15.52,304.69 -15.52,304.69 -46.41,301.54 -76.82,295.26 -106.43,285.92 -134.93,273.62 -162.05,258.49 -187.48,240.69 -210.97,220.38 -232.28,197.8 -251.18,173.17 -267.48,146.75 -281.01,118.79 15.53,-304.69 46.41,-301.53 76.82,-295.26 106.42,-285.92 134.94,-273.63 162.05,-258.49 187.48,-240.69 210.97,-220.38 232.28,-197.8 251.18,-173.17 267.47,-146.74 281.01,-118.8 291.63,-89.62 299.22,-59.52 303.73,-28.8 305.08,2.21 303.27,33.22 298.33,63.86 290.29,93.86 279.25,122.87 265.32,150.62 248.63,176.8 229.37,201.16 207.75,223.43" /><path
             id="path42"
             style="fill:none;stroke:#000000;stroke-width:9.99300003;stroke-linecap:round;stroke-linejoin:round;stroke-miterlimit:10;stroke-dasharray:none;stroke-opacity:1"
             d="m 7121.84,4520.12 -291.63,89.62 -299.22,59.52 -303.73,28.8 -305.08,-2.22 -303.27,-33.21 -298.33,-63.86 -290.29,-93.86 -279.25,-122.87 -265.31,-150.62 -248.64,-176.81 -229.38,-201.15 -207.74,-223.43 -183.96,-243.39 -158.27,-260.82 -130.94,-275.56 -102.26,-287.44 -72.52,-296.34 -42.02,-302.18 -11.09,-304.89 19.96,-304.43 50.79,-300.83 81.1,-294.107 110.58,-284.344 138.9,-271.633 183.96,243.383 158.27,260.824 130.94,275.559 102.26,287.438 72.52,296.34 42.02,302.18 11.09,304.89 -19.96,304.43 -50.79,300.83 -81.1,294.11 -110.57,284.34 -138.91,271.64 -165.79,256.11 -190.96,237.93 -214.15,217.29 -235.13,194.41 -253.67,169.49 -269.59,142.84" /><path
             id="path44"
             style="fill:none;stroke:#000000;stroke-width:9.99300003;stroke-linecap:round;stroke-linejoin:round;stroke-miterlimit:10;stroke-dasharray:none;stroke-opacity:1"
             d="m 2470.68,4848.1 -282.7,114.7 -292.9,85.37 -300.06,55.16 -304.11,24.38 -305.015,-6.66 -302.762,-37.62 165.793,-256.11 190.964,-237.93 214.15,-217.29 235.13,-194.4 253.67,-169.5 269.59,-142.84 282.7,-114.7 292.9,-85.37 300.06,-55.16 304.11,-24.38 305.01,6.66 302.76,37.62 297.37,68.2 288.89,98.06 277.44,126.92 263.1,154.47 246.03,180.39 226.43,204.48 204.47,226.43 180.4,246.03 154.46,263.1 126.92,277.43 98.07,288.9 68.2,297.36 -297.37,-68.19 -288.9,-98.07 -277.43,-126.92 -263.1,-154.46 -246.03,-180.4 -226.43,-204.47 -204.47,-226.43 -180.4,-246.04 -154.46,-263.09 -126.93,-277.44 -98.06,-288.9 -68.2,-297.36" /><path
             id="path46"
             style="fill:none;stroke:#000000;stroke-width:9.99300003;stroke-linecap:round;stroke-linejoin:round;stroke-miterlimit:10;stroke-dasharray:none;stroke-opacity:1"
             d="m 3799.97,3630.03 -37.62,-302.76 -6.65,-305.02 24.37,-304.11 55.16,-300.05 85.38,-292.9 114.7,-282.71 142.83,-269.58 169.5,-253.67 194.4,-235.13 217.3,-214.159 237.93,-190.961 256.11,-165.789 37.62,302.758 6.65,305.011 -24.38,304.11 -55.16,300.06 -85.37,292.9 -114.7,282.71 -142.84,269.58 -169.49,253.67 -194.41,235.13 -217.28,214.16 -237.94,190.96 -256.11,165.79 -271.63,138.9 -284.34,110.57 -294.11,81.11 -300.83,50.79 -304.43,19.96 -304.89,-11.1 -302.18,-42.02 -296.35,-72.51 -287.43,-102.26 -275.561,-130.94 -260.824,-158.28 -243.387,-183.95 271.633,-138.91 284.343,-110.57 294.106,-81.11 300.84,-50.79 304.43,-19.95 304.88,11.09" /><path
             id="path48"
             style="fill:none;stroke:#000000;stroke-width:9.99300003;stroke-linecap:round;stroke-linejoin:round;stroke-miterlimit:10;stroke-dasharray:none;stroke-opacity:1"
             d="m 2134.24,2940.06 302.18,42.02 296.35,72.52 287.44,102.26 275.55,130.94 260.83,158.27 243.38,183.96 223.43,207.74 201.16,229.38 176.8,248.63 150.62,265.32 122.87,279.25 93.86,290.29 63.86,298.33 33.22,303.27 2.22,305.08 -28.8,303.72 -59.52,299.23 -89.63,291.62 -223.42,-207.74 -201.16,-229.38 -176.81,-248.63 -150.62,-265.32 -122.87,-279.24 -93.85,-290.29 -63.87,-298.33 -33.21,-303.28 -2.22,-305.07 28.8,-303.73 59.52,-299.22 89.62,-291.63 118.8,-281.01 146.75,-267.48 173.16,-251.18 197.8,-232.27 220.39,-210.98 240.68,-187.48 258.5,-162.04 273.62,-134.94 285.92,-106.43 295.26,-76.81 301.54,-46.41 304.69,-15.53" /><path
             id="path50"
             style="fill:none;stroke:#000000;stroke-width:9.99300003;stroke-linecap:round;stroke-linejoin:round;stroke-miterlimit:10;stroke-dasharray:none;stroke-opacity:1"
             d="m 6617.08,1657.47 -118.8,281.01 -146.74,267.48 -173.17,251.17 -197.8,232.28 -220.39,210.97 -240.68,187.48 -258.5,162.05 -273.62,134.94 -285.92,106.43 -295.26,76.81 -301.54,46.41 -304.69,15.53 -304.69,-15.53 -301.54,-46.41 -295.26,-76.81 -285.91,-106.43 -273.63,-134.94 -258.49,-162.05 -240.69,-187.48 -220.38,-210.97 -197.8,-232.28 -173.17,-251.17 -146.75,-267.48 -118.793,-281.01 304.693,15.53 301.53,46.41 295.26,76.81 285.92,106.43 273.63,134.94 258.49,162.04 240.69,187.48 220.38,210.98 197.8,232.27 173.17,251.18 146.74,267.48 118.8,281.01 89.62,291.63 59.52,299.22 28.8,303.73 -2.21,305.07 -33.22,303.28 -63.86,298.33" /><path
             id="path52"
             style="fill:none;stroke:#000000;stroke-width:9.99300003;stroke-linecap:round;stroke-linejoin:round;stroke-miterlimit:10;stroke-dasharray:none;stroke-opacity:1"
             d="m 3878.62,5431.29 -93.86,290.29 -122.87,279.24 -150.62,265.32 -176.8,248.63 -201.16,229.38 -223.43,207.74 -89.62,-291.62 -59.52,-299.23 -28.8,-303.72 2.22,-305.08 33.21,-303.27 63.86,-298.33 93.86,-290.29 122.87,-279.25 150.62,-265.32 176.81,-248.63 201.15,-229.38 223.43,-207.74 243.39,-183.96 260.82,-158.27 275.56,-130.94 287.44,-102.26 296.34,-72.52 302.18,-42.02 304.89,-11.09 304.43,19.95 300.83,50.79 294.11,81.11 284.34,110.57 271.63,138.91 -243.38,183.95 -260.82,158.28 -275.56,130.94 -287.44,102.26 -296.34,72.51 -302.18,42.02 -304.89,11.1 -304.43,-19.96 -300.83,-50.79 -294.11,-81.11 -284.34,-110.57 -271.64,-138.9" /><path
             id="path54"
             style="fill:none;stroke:#000000;stroke-width:9.99300003;stroke-linecap:round;stroke-linejoin:round;stroke-miterlimit:10;stroke-dasharray:none;stroke-opacity:1"
             d="m 3799.97,3630.03 -256.11,-165.79 -237.93,-190.96 -217.29,-214.16 -194.4,-235.13 -169.5,-253.67 -142.84,-269.58 -114.7,-282.71 -85.37,-292.9 -55.16,-300.06 -24.38,-304.11 6.66,-305.011 37.62,-302.758 256.11,165.789 237.93,190.961 217.29,214.159 194.4,235.13 169.5,253.67 142.84,269.58 114.7,282.71 85.37,292.9 55.16,300.05 24.38,304.11 -6.66,305.02 -37.62,302.76 -68.2,297.36 -98.06,288.9 -126.92,277.44 -154.47,263.09 -180.39,246.04 -204.48,226.43 -226.42,204.47 -246.04,180.4 -263.1,154.46 -277.43,126.92 -288.9,98.07 -297.36,68.19 68.19,-297.36 98.07,-288.9 126.92,-277.43 154.46,-263.1 180.4,-246.03 204.47,-226.43" /><path
             id="path56"
             style="fill:none;stroke:#000000;stroke-width:9.99300003;stroke-linecap:round;stroke-linejoin:round;stroke-miterlimit:10;stroke-dasharray:none;stroke-opacity:1"
             d="m 2200.71,4462.55 226.43,-204.48 246.04,-180.39 263.1,-154.47 277.43,-126.92 288.9,-98.06 297.36,-68.2 302.76,-37.62 305.02,-6.66 304.11,24.38 300.05,55.16 292.9,85.37 282.71,114.7 269.58,142.84 253.67,169.5 235.13,194.4 214.16,217.29 190.96,237.93 165.79,256.11 -302.76,37.62 -305.01,6.66 -304.11,-24.38 -300.06,-55.16 -292.9,-85.37 -282.71,-114.7 -269.58,-142.84 -253.67,-169.49 -235.13,-194.41 -214.16,-217.29 -190.96,-237.93 -165.79,-256.11 -138.9,-271.64 -110.57,-284.34 -81.11,-294.11 -50.79,-300.83 -19.95,-304.43 11.09,-304.89 42.02,-302.18 72.51,-296.34 102.26,-287.438 130.94,-275.559 158.28,-260.824 183.96,-243.383" /><path
             id="path58"
             style="fill:none;stroke:#000000;stroke-width:9.99300003;stroke-linecap:round;stroke-linejoin:round;stroke-miterlimit:10;stroke-dasharray:none;stroke-opacity:1"
             d="m 4099.71,204.066 138.9,271.633 110.57,284.344 81.11,294.107 50.79,300.83 19.95,304.43 -11.09,304.89 -42.02,302.18 -72.51,296.34 -102.27,287.44 -130.94,275.56 -158.27,260.82 -183.96,243.39 -207.74,223.43 -229.38,201.15 -248.63,176.81 -265.32,150.62 -279.25,122.87 -290.29,93.86 -298.32,63.86 -303.28,33.21 -305.08,2.22 -303.72,-28.8 -299.23,-59.52 -291.625,-89.62 207.743,-223.43 229.379,-201.16 248.633,-176.8 265.32,-150.62 279.25,-122.87 290.28,-93.86 298.33,-63.86 303.28,-33.22 305.07,-2.21 303.73,28.8 299.23,59.52 291.62,89.62 281.01,118.8 267.48,146.74 251.18,173.17 232.27,197.8 210.98,220.38 187.48,240.69" /><path
             id="path60"
             style="fill:none;stroke:#000000;stroke-width:9.99300003;stroke-linecap:round;stroke-linejoin:round;stroke-miterlimit:10;stroke-dasharray:none;stroke-opacity:1"
             d="m 5230.37,4727.61 162.04,258.49 134.94,273.63 106.43,285.92 76.81,295.26 46.42,301.53 15.52,304.69 -281.01,-118.79 -267.48,-146.75 -251.17,-173.17 -232.28,-197.8 -210.97,-220.38 -187.48,-240.69 -162.05,-258.49 -134.94,-273.62 -106.43,-285.92 -76.81,-295.26 -46.41,-301.54 -15.53,-304.69 15.53,-304.69 46.41,-301.54 76.81,-295.26 106.43,-285.92 134.94,-273.62 162.05,-258.5 187.48,-240.68 210.97,-220.39 232.28,-197.8 251.17,-173.17 267.48,-146.737 281.01,-118.801 -15.52,304.698 -46.42,301.53 -76.81,295.26 -106.43,285.92 -134.94,273.63 -162.04,258.49 -187.48,240.68 -210.98,220.39 -232.27,197.8 -251.18,173.17 -267.48,146.74 -281.01,118.8" /><path
             id="path62"
             style="fill:none;stroke:#000000;stroke-width:9.99300003;stroke-linecap:round;stroke-linejoin:round;stroke-miterlimit:10;stroke-dasharray:none;stroke-opacity:1"
             d="m 3799.97,3630.03 -291.62,89.62 -299.23,59.52 -303.73,28.8 -305.07,-2.22 -303.28,-33.21 -298.33,-63.87 -290.28,-93.85 -279.25,-122.87 -265.32,-150.62 -248.633,-176.81 -229.379,-201.15 -207.743,-223.43 291.625,-89.63 299.23,-59.52 303.72,-28.79 305.08,2.21 303.28,33.22 298.32,63.86 290.29,93.86 279.25,122.87 265.32,150.62 248.63,176.8 229.38,201.16 207.74,223.43 183.96,243.38 158.27,260.83 130.94,275.55 102.27,287.44 72.51,296.35 42.02,302.18 11.09,304.88 -19.95,304.44 -50.79,300.83 -81.11,294.11 -110.57,284.34 -138.9,271.63 -183.96,-243.38 -158.28,-260.82 -130.94,-275.56 -102.26,-287.44 -72.51,-296.35 -42.02,-302.18" /><path
             id="path64"
             style="fill:none;stroke:#000000;stroke-width:9.99300003;stroke-linecap:round;stroke-linejoin:round;stroke-miterlimit:10;stroke-dasharray:none;stroke-opacity:1"
             d="m 3409.74,5390.26 -11.09,-304.88 19.95,-304.43 50.79,-300.84 81.11,-294.11 110.57,-284.34 138.9,-271.63 165.79,-256.11 190.96,-237.93 214.16,-217.29 235.13,-194.41 253.67,-169.49 269.58,-142.84 282.71,-114.7 292.9,-85.37 300.06,-55.16 304.11,-24.38 305.01,6.65 302.76,37.63 -165.79,256.1 -190.96,237.93 -214.16,217.3 -235.13,194.4 -253.67,169.5 -269.58,142.83 -282.71,114.7 -292.9,85.38 -300.05,55.16 -304.11,24.37 -305.02,-6.65 -302.76,-37.62 -297.36,-68.2 -288.9,-98.06 -277.43,-126.93 -263.1,-154.46 -246.04,-180.4 -226.43,-204.47 -204.47,-226.43 -180.4,-246.03 -154.46,-263.1 -126.92,-277.43 -98.07,-288.9 -68.19,-297.37" /><path
             id="path66"
             style="fill:none;stroke:#000000;stroke-width:9.99300003;stroke-linecap:round;stroke-linejoin:round;stroke-miterlimit:10;stroke-dasharray:none;stroke-opacity:1"
             d="m 1368.2,1198.25 297.36,68.2 288.9,98.07 277.43,126.92 263.1,154.46 246.04,180.4 226.42,204.47 204.48,226.43 180.39,246.03 154.47,263.1 126.92,277.44 98.06,288.89 68.2,297.37 37.62,302.76 6.66,305.01 -24.38,304.11 -55.16,300.06 -85.37,292.9 -114.7,282.7 -142.84,269.59 -169.5,253.67 -194.4,235.13 -217.29,214.15 -237.93,190.96 -256.11,165.8 -37.62,-302.76 -6.66,-305.02 24.38,-304.11 55.16,-300.06 85.37,-292.9 114.7,-282.7 142.84,-269.59 169.5,-253.67 194.4,-235.13 217.29,-214.15 237.93,-190.96 256.11,-165.79 271.64,-138.9 284.34,-110.58 294.11,-81.1 300.83,-50.79 304.43,-19.96 304.89,11.09" /><path
             id="path68"
             style="fill:none;stroke:#000000;stroke-width:9.99300003;stroke-linecap:round;stroke-linejoin:round;stroke-miterlimit:10;stroke-dasharray:none;stroke-opacity:1"
             d="m 5560.21,3239.79 302.18,42.02 296.34,72.52 287.44,102.26 275.56,130.94 260.82,158.27 243.38,183.96 -271.63,138.9 -284.34,110.58 -294.11,81.1 -300.83,50.79 -304.43,19.96 -304.89,-11.09 -302.18,-42.02 -296.34,-72.52 -287.44,-102.26 -275.56,-130.94 -260.82,-158.27 -243.39,-183.96 -223.43,-207.74 -201.15,-229.38 -176.81,-248.64 -150.62,-265.31 -122.87,-279.25 -93.86,-290.29 -63.86,-298.33 -33.21,-303.27 -2.22,-305.08 28.8,-303.728 59.52,-299.223 89.62,-291.629 223.43,207.746 201.16,229.375 176.8,248.633 150.62,265.316 122.87,279.25 93.86,290.29 63.86,298.33 33.22,303.28 2.21,305.07 -28.8,303.73 -59.52,299.22 -89.62,291.63" /><path
             id="path70"
             style="fill:none;stroke:#000000;stroke-width:9.99300003;stroke-linecap:round;stroke-linejoin:round;stroke-miterlimit:10;stroke-dasharray:none;stroke-opacity:1"
             d="m 3799.97,3630.03 -118.8,281.01 -146.74,267.48 -173.17,251.17 -197.8,232.28 -220.38,210.97 -240.69,187.48 -258.49,162.05 -273.63,134.94 -285.92,106.43 -295.26,76.81 -301.53,46.41 -304.693,15.53 118.793,-281.01 146.75,-267.48 173.17,-251.18 197.8,-232.28 220.38,-210.97 240.69,-187.48 258.49,-162.05 273.63,-134.93 285.91,-106.43 295.26,-76.82 301.54,-46.41 304.69,-15.52 304.69,15.52 301.54,46.41 295.26,76.82 285.92,106.43 273.62,134.93 258.5,162.05 240.68,187.48 220.39,210.97 197.8,232.28 173.17,251.18 146.74,267.48 118.8,281.01 -304.69,-15.53 -301.54,-46.41 -295.26,-76.81 -285.92,-106.43 -273.62,-134.94 -258.5,-162.05" /><path
             id="path72"
             style="fill:none;stroke:#000000;stroke-width:9.99300003;stroke-linecap:round;stroke-linejoin:round;stroke-miterlimit:10;stroke-dasharray:none;stroke-opacity:1"
             d="m 4897.55,5060.42 -240.68,-187.48 -220.39,-210.97 -197.8,-232.28 -173.16,-251.17 -146.75,-267.48 -118.8,-281.01 -89.62,-291.63 -59.52,-299.22 -28.8,-303.73 2.22,-305.07 33.21,-303.28 63.87,-298.33 93.85,-290.29 122.87,-279.25 150.62,-265.316 176.81,-248.633 201.16,-229.375 223.42,-207.746 89.63,291.629 59.52,299.223 28.8,303.728 -2.22,305.08 -33.22,303.27 -63.86,298.33 -93.86,290.29 -122.87,279.25 -150.62,265.31 -176.8,248.64 -201.16,229.38 -223.43,207.74 -243.38,183.96 -260.83,158.27 -275.55,130.94 -287.44,102.26 -296.35,72.52 -302.18,42.02 -304.88,11.09 -304.43,-19.96 -300.84,-50.79 -294.106,-81.1 -284.343,-110.58 -271.633,-138.9" /><path
             id="path74"
             style="fill:none;stroke:#000000;stroke-width:9.99300003;stroke-linecap:round;stroke-linejoin:round;stroke-miterlimit:10;stroke-dasharray:none;stroke-opacity:1"
             d="m 374.008,3929.76 243.387,-183.96 260.824,-158.27 275.561,-130.94 287.43,-102.26 296.35,-72.52 302.18,-42.02 304.89,-11.09 304.43,19.96 300.83,50.79 294.11,81.1 284.34,110.58 271.63,138.9 256.11,165.79 237.94,190.96 217.28,214.15 194.41,235.13 169.49,253.67 142.84,269.59 114.7,282.7 85.37,292.9 55.16,300.06 24.38,304.11 -6.65,305.02 -37.62,302.76 -256.11,-165.8 -237.93,-190.96 -217.3,-214.15 -194.4,-235.13 -169.5,-253.67 -142.83,-269.59 -114.7,-282.7 -85.38,-292.9 -55.16,-300.06 -24.37,-304.11 6.65,-305.01 37.62,-302.76 68.2,-297.37 98.06,-288.89 126.93,-277.44 154.46,-263.1 180.4,-246.03 204.47,-226.43" /><path
             id="path76"
             style="fill:none;stroke:#000000;stroke-width:9.99300003;stroke-linecap:round;stroke-linejoin:round;stroke-miterlimit:10;stroke-dasharray:none;stroke-opacity:1"
             d="m 4632.49,2030.77 226.43,-204.47 246.03,-180.4 263.1,-154.46 277.43,-126.92 288.9,-98.07 297.37,-68.2 -68.2,297.37 -98.07,288.9 -126.92,277.43 -154.46,263.1 -180.4,246.03 -204.47,226.43 -226.43,204.47 -246.03,180.4 -263.1,154.46 -277.44,126.93 -288.89,98.06 -297.37,68.2 -302.76,37.62 -305.01,6.65 -304.11,-24.37 -300.06,-55.16 -292.9,-85.38 -282.7,-114.7 -269.59,-142.83 -253.67,-169.5 -235.13,-194.4 -214.15,-217.3 -190.964,-237.93 -165.793,-256.1 302.762,-37.63 305.015,-6.65 304.11,24.38 300.06,55.16 292.9,85.37 282.7,114.7 269.59,142.84 253.67,169.49 235.13,194.41 214.15,217.29 190.96,237.93 165.79,256.11" /><path
             id="path78"
             style="fill:none;stroke:#000000;stroke-width:9.99300003;stroke-linecap:round;stroke-linejoin:round;stroke-miterlimit:10;stroke-dasharray:none;stroke-opacity:1"
             d="m 3799.97,3630.03 138.91,271.63 110.57,284.34 81.1,294.11 50.79,300.84 19.96,304.43 -11.09,304.88 -42.02,302.18 -72.52,296.35 -102.26,287.44 -130.94,275.56 -158.27,260.82 -183.96,243.38 -138.9,-271.63 -110.58,-284.34 -81.1,-294.11 -50.79,-300.83 -19.96,-304.44 11.09,-304.88 42.02,-302.18 72.52,-296.35 102.26,-287.44 130.94,-275.55 158.27,-260.83 183.96,-243.38 207.74,-223.43 229.38,-201.16 248.64,-176.8 265.31,-150.62 279.25,-122.87 290.29,-93.86 298.33,-63.86 303.27,-33.22 305.08,-2.21 303.73,28.79 299.22,59.52 291.63,89.63 -207.75,223.43 -229.37,201.15 -248.63,176.81 -265.32,150.62 -279.25,122.87 -290.29,93.85" /><path
             id="path80"
             style="fill:none;stroke:#000000;stroke-width:9.99300003;stroke-linecap:round;stroke-linejoin:round;stroke-miterlimit:10;stroke-dasharray:none;stroke-opacity:1"
             d="m 5601.23,3708.67 -298.33,63.87 -303.27,33.21 -305.08,2.22 -303.73,-28.8 -299.22,-59.52 -291.63,-89.62 -281.01,-118.8 -267.47,-146.74 -251.18,-173.17 -232.28,-197.8 -210.97,-220.39 -187.48,-240.68 -162.05,-258.49 -134.94,-273.63 -106.42,-285.92 -76.82,-295.26 -46.41,-301.53 -15.53,-304.698 281.01,118.801 267.48,146.737 251.18,173.17 232.28,197.8 210.97,220.39 187.48,240.68 162.05,258.5 134.93,273.62 106.43,285.92 76.82,295.26 46.41,301.54 15.52,304.69 -15.52,304.69 -46.41,301.54 -76.82,295.26 -106.43,285.92 -134.93,273.62 -162.05,258.49 -187.48,240.69 -210.97,220.38 -232.28,197.8 -251.18,173.17 -267.48,146.75 -281.01,118.79" /><path
             id="path82"
             style="fill:none;stroke:#000000;stroke-width:9.99300003;stroke-linecap:round;stroke-linejoin:round;stroke-miterlimit:10;stroke-dasharray:none;stroke-opacity:1"
             d="m 1827.41,6447.13 15.53,-304.69 46.41,-301.53 76.82,-295.26 106.42,-285.92 134.94,-273.63 162.05,-258.49 187.48,-240.69 210.97,-220.38 232.28,-197.8 251.18,-173.17 267.47,-146.74 281.01,-118.8 291.63,-89.62 299.22,-59.52 303.73,-28.8 305.08,2.21 303.27,33.22 298.33,63.86 290.29,93.86 279.25,122.87 265.32,150.62 248.63,176.8 229.37,201.16 207.75,223.43 -291.63,89.62 -299.22,59.52 -303.73,28.8 -305.08,-2.22 -303.27,-33.21 -298.33,-63.86 -290.29,-93.86 L 4751.04,4382.04 4485.73,4231.42 4237.09,4054.61 4007.71,3853.46 3799.97,3630.03 3616.01,3386.64 3457.74,3125.82 3326.8,2850.26 3224.54,2562.82 3152.02,2266.48 3110,1964.3" /><path
             id="path84"
             style="fill:none;stroke:#000000;stroke-width:9.99300003;stroke-linecap:round;stroke-linejoin:round;stroke-miterlimit:10;stroke-dasharray:none;stroke-opacity:1"
             d="m 3110,1964.3 -11.09,-304.89 19.96,-304.43 50.79,-300.83 81.1,-294.107 110.58,-284.344 138.9,-271.633 183.96,243.383 158.27,260.824 130.94,275.559 102.26,287.438 72.52,296.34 42.02,302.18 11.09,304.89 -19.96,304.43 -50.79,300.83 -81.1,294.11 -110.57,284.34 -138.91,271.64 -165.79,256.11 -190.96,237.93 -214.15,217.29 -235.13,194.41 -253.67,169.49 -269.59,142.84 -282.7,114.7 -292.9,85.37 -300.06,55.16 -304.11,24.38 -305.015,-6.66 -302.762,-37.62 165.793,-256.11 190.964,-237.93 214.15,-217.29 235.13,-194.4 253.67,-169.5 269.59,-142.84 282.7,-114.7 292.9,-85.37 300.06,-55.16 304.11,-24.38 305.01,6.66 302.76,37.62" /><path
             id="path86"
             style="fill:none;stroke:#000000;stroke-width:9.99300003;stroke-linecap:round;stroke-linejoin:round;stroke-miterlimit:10;stroke-dasharray:none;stroke-opacity:1"
             d="m 3799.97,3630.03 297.37,68.2 288.89,98.06 277.44,126.92 263.1,154.47 246.03,180.39 226.43,204.48 204.47,226.43 180.4,246.03 154.46,263.1 126.92,277.43 98.07,288.9 68.2,297.36 -297.37,-68.19 -288.9,-98.07 -277.43,-126.92 -263.1,-154.46 -246.03,-180.4 -226.43,-204.47 -204.47,-226.43 -180.4,-246.04 -154.46,-263.09 -126.93,-277.44 -98.06,-288.9 -68.2,-297.36 -28.86,-269.56 7.89,-270.98 44.48,-267.42 80.27,-258.94 114.57,-245.7 146.77,-227.94 176.26,-205.97 202.52,-180.22 225.04,-151.16 28.86,269.55 -7.89,270.99 -44.48,267.42 -80.27,258.94 -114.57,245.7 -146.76,227.93 -176.27,205.97 -202.51,180.23 -225.05,151.16" /><path
             id="path88"
             style="fill:none;stroke:#000000;stroke-width:9.99300003;stroke-linecap:round;stroke-linejoin:round;stroke-miterlimit:10;stroke-dasharray:none;stroke-opacity:1"
             d="m 3799.97,3630.03 -243.43,119.31 -257.33,85.27 -266.51,49.67 -270.78,13.13 -270.07,-23.62 -264.38,-59.96 -253.84,-95.19 -238.62,-128.66 -219.01,-159.77 243.43,-119.32 257.33,-85.27 266.51,-49.66 270.78,-13.14 270.07,23.63 264.38,59.96 253.84,95.18 238.62,128.67 219.01,159.77 195.38,187.94 168.14,212.65 137.82,233.45 104.96,249.96 70.16,261.86 34.09,268.95 -2.63,271.08 -39.29,268.24 -75.23,260.45 -195.38,-187.95 -168.14,-212.65 -137.82,-233.45 -104.96,-249.95 -70.16,-261.86 -34.09,-268.95 2.63,-271.09 39.29,-268.23 75.23,-260.45 109.79,-247.87 142.32,-230.74 172.23,-209.35 198.99,-184.12 222.07,-155.5 241.07,-124.01" /><path
             id="path90"
             style="fill:none;stroke:#000000;stroke-width:9.99300003;stroke-linecap:round;stroke-linejoin:round;stroke-miterlimit:10;stroke-dasharray:none;stroke-opacity:1"
             d="m 4886.44,2478.44 255.63,-90.24 265.5,-54.82 270.47,-18.39 -109.78,247.87 -142.32,230.74 -172.24,209.35 -198.98,184.12 -222.07,155.49 -241.07,124.01 -255.64,90.25 -265.49,54.82 -270.48,18.39 -270.47,-18.39 -265.5,-54.82 -255.63,-90.25 -241.07,-124.01 -222.07,-155.49 -198.99,-184.12 -172.23,-209.35 -142.32,-230.74 -109.79,-247.87 270.48,18.39 265.49,54.82 255.64,90.24 241.07,124.01 222.07,155.5 198.98,184.12 172.24,209.35 142.32,230.74 109.78,247.87 75.23,260.45 39.29,268.23 2.63,271.09 -34.08,268.95 -70.16,261.86 -104.96,249.95 -137.82,233.45 -168.15,212.65 -195.37,187.95 -75.23,-260.45 -39.29,-268.24 -2.63,-271.08" /><path
             id="path92"
             style="fill:none;stroke:#000000;stroke-width:9.99300003;stroke-linecap:round;stroke-linejoin:round;stroke-miterlimit:10;stroke-dasharray:none;stroke-opacity:1"
             d="m 3089.43,5044.84 34.08,-268.95 70.17,-261.86 104.95,-249.96 137.82,-233.45 168.15,-212.65 195.37,-187.94 219.01,-159.77 238.63,-128.67 253.83,-95.18 264.39,-59.96 270.06,-23.63 270.78,13.14 266.51,49.66 257.34,85.27 243.43,119.32 -219.02,159.77 -238.62,128.66 -253.83,95.19 -264.39,59.96 -270.06,23.62 -270.78,-13.13 -266.51,-49.67 -257.34,-85.27 -243.43,-119.31 -225.04,-151.16 -202.52,-180.23 -176.26,-205.97 -146.77,-227.93 -114.57,-245.7 -80.27,-258.94 -44.48,-267.42 -7.88,-270.99 28.86,-269.55 225.04,151.16 202.51,180.22 176.27,205.97 146.77,227.94 114.57,245.7 80.26,258.94 44.49,267.42 7.88,270.98 -28.86,269.56" /><path
             id="path94"
             style="fill:none;stroke:#000000;stroke-width:9.99300003;stroke-linecap:round;stroke-linejoin:round;stroke-miterlimit:10;stroke-dasharray:none;stroke-opacity:1"
             d="m 3799.97,3630.03 -65.07,263.17 -100.09,251.94 -133.27,236.08 -163.99,215.88 -191.69,191.69 -215.88,163.99 -236.08,133.27 -251.94,100.09 -263.17,65.07 65.07,-263.17 100.09,-251.94 133.27,-236.08 163.99,-215.88 191.69,-191.69 215.88,-163.99 236.08,-133.27 251.94,-100.09 263.17,-65.07 269.56,-28.86 270.98,7.88 267.42,44.49 258.95,80.26 245.69,114.58 227.94,146.76 205.97,176.27 180.22,202.51 151.16,225.04 -269.55,28.86 -270.99,-7.88 -267.42,-44.48 -258.94,-80.27 -245.7,-114.57 -227.93,-146.77 -205.97,-176.26 -180.23,-202.52 -151.16,-225.04 -119.31,-243.43 -85.27,-257.34 -49.67,-266.51 -13.13,-270.78 23.62,-270.06 59.96,-264.39" /><path
             id="path96"
             style="fill:none;stroke:#000000;stroke-width:9.99300003;stroke-linecap:round;stroke-linejoin:round;stroke-miterlimit:10;stroke-dasharray:none;stroke-opacity:1"
             d="m 3616.17,2057.52 95.19,-253.83 128.66,-238.62 159.77,-219.02 119.32,243.43 85.27,257.34 49.66,266.51 13.14,270.78 -23.63,270.07 -59.96,264.38 -95.18,253.83 -128.67,238.63 -159.77,219.01 -187.94,195.37 -212.65,168.15 -233.45,137.82 -249.96,104.95 -261.86,70.17 -268.95,34.08 -271.08,-2.63 -268.24,-39.29 -260.45,-75.23 187.95,-195.37 212.65,-168.15 233.45,-137.82 249.95,-104.95 261.87,-70.17 268.94,-34.08 271.09,2.63 268.23,39.29 260.45,75.23 247.87,109.78 230.74,142.32 209.35,172.24 184.12,198.98 155.5,222.07 124.01,241.07 90.24,255.64 54.83,265.5 18.38,270.47 -247.87,-109.79 -230.74,-142.32 -209.35,-172.23" /><path
             id="path98"
             style="fill:none;stroke:#000000;stroke-width:9.99300003;stroke-linecap:round;stroke-linejoin:round;stroke-miterlimit:10;stroke-dasharray:none;stroke-opacity:1"
             d="M 4427.05,5083.76 4242.93,4884.77 4087.44,4662.7 3963.43,4421.63 3873.18,4166 l -54.82,-265.5 -18.39,-270.47 18.39,-270.48 54.82,-265.49 90.25,-255.64 124.01,-241.07 155.49,-222.07 184.12,-198.98 209.35,-172.24 230.74,-142.32 247.87,-109.78 -18.38,270.47 -54.83,265.5 -90.24,255.63 -124.01,241.07 -155.5,222.07 -184.12,198.99 -209.35,172.23 -230.74,142.32 -247.87,109.79 -260.45,75.23 -268.23,39.29 -271.09,2.63 -268.94,-34.09 -261.87,-70.16 -249.95,-104.96 -233.45,-137.82 -212.65,-168.14 -187.95,-195.38 260.45,-75.23 268.24,-39.29 271.08,-2.63 268.95,34.09 261.86,70.16 249.96,104.96 233.45,137.82 212.65,168.14 187.94,195.38" /><path
             id="path100"
             style="fill:none;stroke:#000000;stroke-width:9.99300003;stroke-linecap:round;stroke-linejoin:round;stroke-miterlimit:10;stroke-dasharray:none;stroke-opacity:1"
             d="m 3799.97,3630.03 159.77,219.01 128.67,238.62 95.18,253.84 59.96,264.38 23.63,270.07 -13.14,270.78 -49.66,266.51 -85.27,257.33 -119.32,243.43 -159.77,-219.01 -128.66,-238.62 -95.19,-253.83 -59.96,-264.39 -23.62,-270.06 13.13,-270.79 49.67,-266.5 85.27,-257.34 119.31,-243.43 151.16,-225.05 180.23,-202.51 205.97,-176.27 227.93,-146.76 245.7,-114.57 258.94,-80.27 267.42,-44.48 270.99,-7.89 269.55,28.86 -151.16,225.05 -180.22,202.51 -205.97,176.26 -227.94,146.77 -245.69,114.57 -258.95,80.27 -267.42,44.48 -270.98,7.89 -269.56,-28.86 -263.17,-65.08 -251.94,-100.09 -236.08,-133.26 -215.88,-163.99 -191.69,-191.7 -163.99,-215.87" /><path
             id="path102"
             style="fill:none;stroke:#000000;stroke-width:9.99300003;stroke-linecap:round;stroke-linejoin:round;stroke-miterlimit:10;stroke-dasharray:none;stroke-opacity:1"
             d="m 2477.22,2760.04 -133.27,-236.08 -100.09,-251.94 -65.07,-263.18 263.17,65.08 251.94,100.09 236.08,133.27 215.88,163.99 191.69,191.69 163.99,215.87 133.27,236.08 100.09,251.95 65.07,263.17 28.86,269.56 -7.88,270.98 -44.49,267.42 -80.26,258.94 -114.57,245.7 -146.77,227.93 -176.27,205.98 -202.51,180.22 -225.04,151.16 -28.86,-269.56 7.88,-270.98 44.48,-267.42 80.27,-258.94 114.57,-245.7 146.77,-227.93 176.26,-205.98 202.52,-180.22 225.04,-151.16 243.43,-119.32 257.34,-85.27 266.51,-49.66 270.78,-13.14 270.06,23.63 264.39,59.96 253.83,95.18 238.62,128.67 219.02,159.77 -243.43,119.31 -257.34,85.28 -266.51,49.66" /><path
             id="path104"
             style="fill:none;stroke:#000000;stroke-width:9.99300003;stroke-linecap:round;stroke-linejoin:round;stroke-miterlimit:10;stroke-dasharray:none;stroke-opacity:1"
             d="m 5316.67,4084.1 -270.78,13.13 -270.06,-23.62 -264.39,-59.96 -253.83,-95.19 -238.63,-128.66 -219.01,-159.77 -195.37,-187.94 -168.15,-212.66 -137.82,-233.45 -104.95,-249.95 -70.17,-261.86 -34.08,-268.95 2.63,-271.08 39.29,-268.24 75.23,-260.45 195.37,187.94 168.15,212.65 137.82,233.46 104.96,249.95 70.16,261.86 34.08,268.95 -2.63,271.08 -39.29,268.24 -75.23,260.45 -109.78,247.87 -142.32,230.74 -172.24,209.35 -198.98,184.12 -222.07,155.49 -241.07,124.01 -255.64,90.25 -265.49,54.82 -270.48,18.39 109.79,-247.87 142.32,-230.74 172.23,-209.35 198.99,-184.12 222.07,-155.5 241.07,-124.01 255.63,-90.25 265.5,-54.82 270.47,-18.38" /><path
             id="path106"
             style="fill:none;stroke:#000000;stroke-width:9.99300003;stroke-linecap:round;stroke-linejoin:round;stroke-miterlimit:10;stroke-dasharray:none;stroke-opacity:1"
             d="m 3799.97,3630.03 270.48,18.38 265.49,54.82 255.64,90.25 241.07,124.01 222.07,155.5 198.98,184.12 172.24,209.35 142.32,230.74 109.78,247.87 -270.47,-18.39 -265.5,-54.82 -255.63,-90.25 -241.07,-124.01 -222.07,-155.49 -198.99,-184.12 -172.23,-209.35 -142.32,-230.74 -109.79,-247.87 -75.23,-260.45 -39.29,-268.24 -2.63,-271.08 34.09,-268.95 70.16,-261.86 104.96,-249.95 137.82,-233.46 168.14,-212.65 195.38,-187.94 75.23,260.45 39.29,268.24 2.63,271.08 -34.09,268.95 -70.16,261.86 -104.96,249.95 -137.82,233.45 -168.14,212.66 -195.38,187.94 -219.01,159.77 -238.62,128.66 -253.84,95.19 -264.38,59.96 -270.07,23.62 -270.78,-13.13" /><path
             id="path108"
             style="fill:none;stroke:#000000;stroke-width:9.99300003;stroke-linecap:round;stroke-linejoin:round;stroke-miterlimit:10;stroke-dasharray:none;stroke-opacity:1"
             d="m 2283.27,4084.1 -266.51,-49.66 -257.33,-85.28 -243.43,-119.31 219.01,-159.77 238.62,-128.67 253.84,-95.18 264.38,-59.96 270.07,-23.63 270.78,13.14 266.51,49.66 257.33,85.27 243.43,119.32 225.05,151.16 202.51,180.22 176.27,205.98 146.76,227.93 114.57,245.7 80.27,258.94 44.48,267.42 7.89,270.98 -28.86,269.56 -225.04,-151.16 -202.52,-180.22 -176.26,-205.98 -146.77,-227.93 -114.57,-245.7 -80.27,-258.94 -44.48,-267.42 -7.89,-270.98 28.86,-269.56 65.08,-263.17 100.09,-251.95 133.26,-236.08 163.99,-215.87 191.7,-191.69 215.87,-163.99 236.08,-133.27 251.94,-100.09 263.18,-65.08 -65.08,263.18 -100.09,251.94 -133.26,236.08" /><path
             id="path110"
             style="fill:none;stroke:#000000;stroke-width:9.99300003;stroke-linecap:round;stroke-linejoin:round;stroke-miterlimit:10;stroke-dasharray:none;stroke-opacity:1"
             d="m 5122.73,2760.04 -164,215.87 -191.69,191.7 -215.87,163.99 -236.08,133.26 -251.95,100.09 -263.17,65.08 -269.56,28.86 -270.98,-7.89 -267.42,-44.48 -258.94,-80.27 -245.7,-114.57 -227.93,-146.77 -205.98,-176.26 -180.22,-202.51 -151.16,-225.05 269.56,-28.86 270.98,7.89 267.42,44.48 258.94,80.27 245.7,114.57 227.93,146.76 205.98,176.27 180.22,202.51 151.16,225.05 119.32,243.43 85.27,257.34 49.66,266.5 13.14,270.79 -23.63,270.06 -59.96,264.39 -95.18,253.83 -128.67,238.62 -159.77,219.01 -119.31,-243.43 -85.28,-257.33 -49.66,-266.51 -13.13,-270.78 23.62,-270.07 59.96,-264.38 95.19,-253.84 128.66,-238.62 159.77,-219.01" /><path
             id="path112"
             style="fill:none;stroke:#000000;stroke-width:9.99300003;stroke-linecap:round;stroke-linejoin:round;stroke-miterlimit:10;stroke-dasharray:none;stroke-opacity:1"
             d="m 3799.97,3630.03 187.94,-195.38 212.66,-168.14 233.45,-137.82 249.95,-104.96 261.86,-70.16 268.95,-34.09 271.08,2.63 268.24,39.29 260.45,75.23 -187.94,195.38 -212.65,168.14 -233.46,137.82 -249.95,104.96 -261.86,70.16 -268.95,34.09 -271.08,-2.63 -268.24,-39.29 -260.45,-75.23 -247.87,-109.79 -230.74,-142.32 -209.35,-172.23 -184.12,-198.99 -155.49,-222.07 -124.01,-241.07 -90.25,-255.63 -54.82,-265.5 -18.39,-270.47 247.88,109.78 230.73,142.32 209.35,172.24 184.12,198.98 155.5,222.07 124.01,241.07 90.25,255.64 54.82,265.49 18.38,270.48 -18.38,270.47 -54.82,265.5 -90.25,255.63 -124.01,241.07 -155.5,222.07 -184.12,198.99" /><path
             id="path114"
             style="fill:none;stroke:#000000;stroke-width:9.99300003;stroke-linecap:round;stroke-linejoin:round;stroke-miterlimit:10;stroke-dasharray:none;stroke-opacity:1"
             d="m 3172.89,5083.76 -209.35,172.23 -230.73,142.32 -247.88,109.79 18.39,-270.47 54.82,-265.5 90.25,-255.64 124.01,-241.07 155.49,-222.07 184.12,-198.98 209.35,-172.24 230.74,-142.32 247.87,-109.78 260.45,-75.23 268.24,-39.29 271.08,-2.63 268.95,34.08 261.86,70.17 249.95,104.95 233.46,137.82 212.65,168.15 187.94,195.37 -260.45,75.23 -268.24,39.29 -271.08,2.63 -268.95,-34.08 -261.86,-70.17 -249.95,-104.95 -233.45,-137.82 -212.66,-168.15 -187.94,-195.37 -159.77,-219.01 -128.66,-238.63 -95.19,-253.83 -59.96,-264.38 -23.62,-270.07 13.13,-270.78 49.66,-266.51 85.28,-257.34 119.31,-243.43 159.77,219.02 128.67,238.62 95.18,253.83" /><path
             id="path116"
             style="fill:none;stroke:#000000;stroke-width:9.99300003;stroke-linecap:round;stroke-linejoin:round;stroke-miterlimit:10;stroke-dasharray:none;stroke-opacity:1"
             d="m 3983.77,2057.52 59.96,264.39 23.63,270.06 -13.14,270.78 -49.66,266.51 -85.27,257.34 -119.32,243.43 -151.16,225.04 -180.22,202.52 -205.98,176.26 -227.93,146.77 -245.7,114.57 -258.94,80.27 -267.42,44.48 -270.98,7.88 -269.56,-28.86 151.16,-225.04 180.22,-202.51 205.98,-176.27 227.93,-146.76 245.7,-114.58 258.94,-80.26 267.42,-44.49 270.98,-7.88 269.56,28.86 263.17,65.07 251.95,100.09 236.08,133.27 215.87,163.99 191.69,191.69 164,215.88 133.26,236.08 100.09,251.94 65.08,263.17 -263.18,-65.07 -251.94,-100.09 -236.08,-133.27 -215.87,-163.99 -191.7,-191.69 -163.99,-215.88 -133.26,-236.08 -100.09,-251.94 -65.08,-263.17" /><path
             id="path118"
             style="fill:none;stroke:#000000;stroke-width:9.99300003;stroke-linecap:round;stroke-linejoin:round;stroke-miterlimit:10;stroke-dasharray:none;stroke-opacity:1"
             d="m 3799.97,3630.03 -28.86,-269.56 7.89,-270.98 44.48,-267.42 80.27,-258.94 114.57,-245.7 146.77,-227.94 176.26,-205.97 202.52,-180.22 225.04,-151.16 28.86,269.55 -7.89,270.99 -44.48,267.42 -80.27,258.94 -114.57,245.7 -146.76,227.93 -176.27,205.97 -202.51,180.23 -225.05,151.16 -243.43,119.31 -257.33,85.27 -266.51,49.67 -270.78,13.13 -270.07,-23.62 -264.38,-59.96 -253.84,-95.19 -238.62,-128.66 -219.01,-159.77 243.43,-119.32 257.33,-85.27 266.51,-49.66 270.78,-13.14 270.07,23.63 264.38,59.96 253.84,95.18 238.62,128.67 219.01,159.77 195.38,187.94 168.14,212.65 137.82,233.45 104.96,249.96 70.16,261.86 34.09,268.95" /><path
             id="path120"
             style="fill:none;stroke:#000000;stroke-width:9.99300003;stroke-linecap:round;stroke-linejoin:round;stroke-miterlimit:10;stroke-dasharray:none;stroke-opacity:1"
             d="m 4510.52,5044.84 -2.63,271.08 -39.29,268.24 -75.23,260.45 -195.38,-187.95 -168.14,-212.65 -137.82,-233.45 -104.96,-249.95 -70.16,-261.86 -34.09,-268.95 2.63,-271.09 39.29,-268.23 75.23,-260.45 109.79,-247.87 142.32,-230.74 172.23,-209.35 198.99,-184.12 222.07,-155.5 241.07,-124.01 255.63,-90.24 265.5,-54.82 270.47,-18.39 -109.78,247.87 -142.32,230.74 -172.24,209.35 -198.98,184.12 -222.07,155.49 -241.07,124.01 -255.64,90.25 -265.49,54.82 -270.48,18.39 -270.47,-18.39 -265.5,-54.82 -255.63,-90.25 -241.07,-124.01 -222.07,-155.49 -198.99,-184.12 -172.23,-209.35 -142.32,-230.74 -109.79,-247.87 270.48,18.39 265.49,54.82 255.64,90.24" /><path
             id="path122"
             style="fill:none;stroke:#000000;stroke-width:9.99300003;stroke-linecap:round;stroke-linejoin:round;stroke-miterlimit:10;stroke-dasharray:none;stroke-opacity:1"
             d="m 2713.51,2478.44 241.07,124.01 222.07,155.5 198.98,184.12 172.24,209.35 142.32,230.74 109.78,247.87 75.23,260.45 39.29,268.23 2.63,271.09 -34.08,268.95 -70.16,261.86 -104.96,249.95 -137.82,233.45 -168.15,212.65 -195.37,187.95 -75.23,-260.45 -39.29,-268.24 -2.63,-271.08 34.08,-268.95 70.17,-261.86 104.95,-249.96 137.82,-233.45 168.15,-212.65 195.37,-187.94 219.01,-159.77 238.63,-128.67 253.83,-95.18 264.39,-59.96 270.06,-23.63 270.78,13.14 266.51,49.66 257.34,85.27 243.43,119.32 -219.02,159.77 -238.62,128.66 -253.83,95.19 -264.39,59.96 -270.06,23.62 -270.78,-13.13 -266.51,-49.67 -257.34,-85.27 -243.43,-119.31" /><path
             id="path124"
             style="fill:none;stroke:#000000;stroke-width:9.99300003;stroke-linecap:round;stroke-linejoin:round;stroke-miterlimit:10;stroke-dasharray:none;stroke-opacity:1"
             d="m 3799.97,3630.03 -225.04,-151.16 -202.52,-180.23 -176.26,-205.97 -146.77,-227.93 -114.57,-245.7 -80.27,-258.94 -44.48,-267.42 -7.88,-270.99 28.86,-269.55 225.04,151.16 202.51,180.22 176.27,205.97 146.77,227.94 114.57,245.7 80.26,258.94 44.49,267.42 7.88,270.98 -28.86,269.56 -65.07,263.17 -100.09,251.94 -133.27,236.08 -163.99,215.88 -191.69,191.69 -215.88,163.99 -236.08,133.27 -251.94,100.09 -263.17,65.07 65.07,-263.17 100.09,-251.94 133.27,-236.08 163.99,-215.88 191.69,-191.69 215.88,-163.99 236.08,-133.27 251.94,-100.09 263.17,-65.07 269.56,-28.86 270.98,7.88 267.42,44.49 258.95,80.26 245.69,114.58 227.94,146.76" /><path
             id="path126"
             style="fill:none;stroke:#000000;stroke-width:9.99300003;stroke-linecap:round;stroke-linejoin:round;stroke-miterlimit:10;stroke-dasharray:none;stroke-opacity:1"
             d="m 5340.51,3995.14 205.97,176.27 180.22,202.51 151.16,225.04 -269.55,28.86 -270.99,-7.88 -267.42,-44.48 -258.94,-80.27 -245.7,-114.57 -227.93,-146.77 -205.97,-176.26 -180.23,-202.52 -151.16,-225.04 -119.31,-243.43 -85.27,-257.34 -49.67,-266.51 -13.13,-270.78 23.62,-270.06 59.96,-264.39 95.19,-253.83 128.66,-238.62 159.77,-219.02 119.32,243.43 85.27,257.34 49.66,266.51 13.14,270.78 -23.63,270.07 -59.96,264.38 -95.18,253.83 -128.67,238.63 -159.77,219.01 -187.94,195.37 -212.65,168.15 -233.45,137.82 -249.96,104.95 -261.86,70.17 -268.95,34.08 -271.08,-2.63 -268.24,-39.29 -260.45,-75.23 187.95,-195.37 212.65,-168.15 233.45,-137.82" /><path
             id="path128"
             style="fill:none;stroke:#000000;stroke-width:9.99300003;stroke-linecap:round;stroke-linejoin:round;stroke-miterlimit:10;stroke-dasharray:none;stroke-opacity:1"
             d="m 2219.44,3722.08 249.95,-104.95 261.87,-70.17 268.94,-34.08 271.09,2.63 268.23,39.29 260.45,75.23 247.87,109.78 230.74,142.32 209.35,172.24 184.12,198.98 155.5,222.07 124.01,241.07 90.24,255.64 54.83,265.5 18.38,270.47 -247.87,-109.79 -230.74,-142.32 -209.35,-172.23 -184.12,-198.99 -155.49,-222.07 -124.01,-241.07 -90.25,-255.63 -54.82,-265.5 -18.39,-270.47 18.39,-270.48 54.82,-265.49 90.25,-255.64 124.01,-241.07 155.49,-222.07 184.12,-198.98 209.35,-172.24 230.74,-142.32 247.87,-109.78 -18.38,270.47 -54.83,265.5 -90.24,255.63 -124.01,241.07 -155.5,222.07 -184.12,198.99 -209.35,172.23 -230.74,142.32 -247.87,109.79" /><path
             id="path130"
             style="fill:#ffffff;fill-opacity:1;fill-rule:evenodd;stroke:none"
             d="m 3799.97,3630.03 v 0 h 899.37 l -24.24,207.41 -71.42,196.22 -114.75,174.47 -151.89,143.3 -180.84,104.41 -200.06,59.89 -208.46,12.15 -205.65,-36.26 -191.74,-82.71 -167.5,-124.7 -134.23,-159.97 -93.72,-186.61 -48.16,-203.19 v -208.82 l 48.16,-203.19 93.72,-186.61 134.23,-159.97 167.5,-124.7 191.74,-82.71 205.65,-36.26 208.46,12.14 200.06,59.89 180.84,104.41 151.89,143.31 114.75,174.46 71.42,196.23 24.24,207.41 h -899.37" /><path
             id="path132"
             style="fill:none;stroke:#000000;stroke-width:9.99300003;stroke-linecap:round;stroke-linejoin:round;stroke-miterlimit:10;stroke-dasharray:none;stroke-opacity:1"
             d="m 4699.34,3630.03 -24.24,207.41 -71.42,196.22 -114.75,174.47 -151.89,143.3 -180.84,104.41 -200.06,59.89 -208.46,12.15 -205.65,-36.26 -191.74,-82.71 -167.5,-124.7 -134.23,-159.97 -93.72,-186.61 -48.16,-203.19 v -208.82 l 48.16,-203.19 93.72,-186.61 134.23,-159.97 167.5,-124.7 191.74,-82.71 205.65,-36.26 208.46,12.14 200.06,59.89 180.84,104.41 151.89,143.31 114.75,174.46 71.42,196.23 24.24,207.41" /><path
             id="path134"
             style="fill:#ffffff;fill-opacity:1;fill-rule:evenodd;stroke:none"
             d="m 4699.34,3630.03 h -899.37 849.41 l -24.68,203.27 -72.62,191.47 -116.32,168.52 -153.27,135.78 -181.31,95.16 -198.82,49.01 h -204.77 l -198.82,-49.01 -181.32,-95.16 -153.27,-135.78 -116.32,-168.52 -72.61,-191.47 -24.68,-203.27 24.68,-203.28 72.61,-191.46 116.32,-168.52 153.27,-135.79 181.32,-95.16 198.82,-49 h 204.77 l 198.82,49 181.31,95.16 153.27,135.79 116.32,168.52 72.62,191.46 24.68,203.28 h 49.96" /><path
             id="path136"
             style="fill:none;stroke:#000000;stroke-width:9.99300003;stroke-linecap:round;stroke-linejoin:round;stroke-miterlimit:10;stroke-dasharray:none;stroke-opacity:1"
             d="m 4649.38,3630.03 -24.68,203.27 -72.62,191.47 -116.32,168.52 -153.27,135.78 -181.31,95.16 -198.82,49.01 h -204.77 l -198.82,-49.01 -181.32,-95.16 -153.27,-135.78 -116.32,-168.52 -72.61,-191.47 -24.68,-203.27 24.68,-203.28 72.61,-191.46 116.32,-168.52 153.27,-135.79 181.32,-95.16 198.82,-49 h 204.77 l 198.82,49 181.31,95.16 153.27,135.79 116.32,168.52 72.62,191.46 24.68,203.28" /><path
             id="path138"
             style="fill:#ffffff;fill-opacity:1;fill-rule:evenodd;stroke:none"
             d="m 3799.97,3630.03 v 0 h 599.58 l -24.28,168.92 -70.9,155.24 -111.76,128.97 -143.56,92.27 -163.75,48.07 h -170.66 l -163.74,-48.07 -143.57,-92.27 -111.76,-128.97 -70.89,-155.24 -24.29,-168.92 24.29,-168.92 70.89,-155.24 111.76,-128.98 143.57,-92.26 163.74,-48.08 h 170.66 l 163.75,48.08 143.56,92.26 111.76,128.98 70.9,155.24 24.28,168.92 h -599.58" /><path
             id="path140"
             style="fill:none;stroke:#000000;stroke-width:9.99300003;stroke-linecap:round;stroke-linejoin:round;stroke-miterlimit:10;stroke-dasharray:none;stroke-opacity:1"
             d="m 4399.55,3630.03 -24.28,168.92 -70.9,155.24 -111.76,128.97 -143.56,92.27 -163.75,48.07 h -170.66 l -163.74,-48.07 -143.57,-92.27 -111.76,-128.97 -70.89,-155.24 -24.29,-168.92 24.29,-168.92 70.89,-155.24 111.76,-128.98 143.57,-92.26 163.74,-48.08 h 170.66 l 163.75,48.08 143.56,92.26 111.76,128.98 70.9,155.24 24.28,168.92" /><path
             id="path142"
             style="fill:#ffffff;fill-opacity:1;fill-rule:evenodd;stroke:none"
             d="m 4399.55,3630.03 h -599.58 549.62 l -24.42,162 -71.08,147.61 -111.44,120.09 -141.88,81.92 -159.73,36.46 -163.37,-12.25 -152.51,-59.85 -128.09,-102.15 -92.28,-135.36 -48.29,-156.55 v -163.84 l 48.29,-156.55 92.28,-135.36 128.09,-102.15 152.51,-59.86 163.37,-12.24 159.73,36.46 141.88,81.91 111.44,120.1 71.08,147.61 24.42,162 h 49.96" /><path
             id="path144"
             style="fill:none;stroke:#000000;stroke-width:9.99300003;stroke-linecap:round;stroke-linejoin:round;stroke-miterlimit:10;stroke-dasharray:none;stroke-opacity:1"
             d="m 4349.59,3630.03 -24.42,162 -71.08,147.61 -111.44,120.09 -141.88,81.92 -159.73,36.46 -163.37,-12.25 -152.51,-59.85 -128.09,-102.15 -92.28,-135.36 -48.29,-156.55 v -163.84 l 48.29,-156.55 92.28,-135.36 128.09,-102.15 152.51,-59.86 163.37,-12.24 159.73,36.46 141.88,81.91 111.44,120.1 71.08,147.61 24.42,162" /><path
             id="path146"
             style="fill:#ffffff;fill-opacity:1;fill-rule:evenodd;stroke:none"
             d="m 3799.97,3630.03 v 0 h 249.83 l -19.02,95.6 -54.15,81.05 -81.06,54.16 -95.6,19.01 -95.6,-19.01 -81.05,-54.16 -54.16,-81.05 -19.01,-95.6 19.01,-95.6 54.16,-81.05 81.05,-54.16 95.6,-19.02 95.6,19.02 81.06,54.16 54.15,81.05 19.02,95.6 h -249.83" /><path
             id="path148"
             style="fill:none;stroke:#000000;stroke-width:9.99300003;stroke-linecap:round;stroke-linejoin:round;stroke-miterlimit:10;stroke-dasharray:none;stroke-opacity:1"
             d="m 4049.8,3630.03 -19.02,95.6 -54.15,81.05 -81.06,54.16 -95.6,19.01 -95.6,-19.01 -81.05,-54.16 -54.16,-81.05 -19.01,-95.6 19.01,-95.6 54.16,-81.05 81.05,-54.16 95.6,-19.02 95.6,19.02 81.06,54.16 54.15,81.05 19.02,95.6" /><path
             id="path150"
             style="fill:#ffffff;fill-opacity:1;fill-rule:evenodd;stroke:none"
             d="m 4049.8,3630.03 h -249.83 199.86 l -17.28,81.29 -48.85,67.23 -71.97,41.56 -82.65,8.68 -79.04,-25.68 -61.76,-55.61 -33.8,-75.92 v -83.1 l 33.8,-75.93 61.76,-55.6 79.04,-25.69 82.65,8.69 71.97,41.55 48.85,67.24 17.28,81.29 h 49.97" /><path
             id="path152"
             style="fill:none;stroke:#000000;stroke-width:9.99300003;stroke-linecap:round;stroke-linejoin:round;stroke-miterlimit:10;stroke-dasharray:none;stroke-opacity:1"
             d="m 3999.83,3630.03 -17.28,81.29 -48.85,67.23 -71.97,41.56 -82.65,8.68 -79.04,-25.68 -61.76,-55.61 -33.8,-75.92 v -83.1 l 33.8,-75.93 61.76,-55.6 79.04,-25.69 82.65,8.69 71.97,41.55 48.85,67.24 17.28,81.29" /><path
             id="path154"
             style="fill:none;stroke:#000000;stroke-width:9.99300003;stroke-linecap:round;stroke-linejoin:round;stroke-miterlimit:10;stroke-dasharray:none;stroke-opacity:1"
             d="m 3799.97,3630.03 h -499.65 l -24.98,-6.69 -18.29,-18.29 -6.69,-24.99 6.69,-24.98 18.29,-18.29 24.98,-6.69 24.98,6.69 18.29,18.29 6.7,24.98 -6.7,24.99 -18.29,18.29 -24.98,6.69 -6.69,24.98 -18.29,18.29 -24.98,6.69 -24.98,-6.69 -18.29,-18.29 -6.7,-24.98 6.7,-24.98 18.29,-18.29 24.98,-6.7 24.98,6.7 18.29,18.29 6.69,24.98 24.98,6.69 18.29,18.29 6.7,24.98 -6.7,24.99 -18.29,18.29 -24.98,6.69 -24.98,-6.69 -18.29,-18.29 -6.69,-24.99 6.69,-24.98 18.29,-18.29 24.98,-6.69" /><path
             id="path156"
             style="fill:none;stroke:#000000;stroke-width:9.99300003;stroke-linecap:round;stroke-linejoin:round;stroke-miterlimit:10;stroke-dasharray:none;stroke-opacity:1"
             d="m 3799.97,3630.03 -362.27,168.93 -25.47,4.49 -24.3,-8.85 -16.63,-19.81 -4.49,-25.47 8.85,-24.3 19.81,-16.63 25.47,-4.49 24.31,8.85 16.62,19.81 4.49,25.47 -8.84,24.3 -19.82,16.63 4.5,25.47 -8.85,24.3 -19.81,16.63 -25.48,4.49 -24.3,-8.85 -16.62,-19.81 -4.5,-25.47 8.85,-24.31 19.81,-16.62 25.47,-4.49 24.31,8.84 16.62,19.82 25.47,-4.5 24.31,8.85 16.62,19.82 4.49,25.46 -8.84,24.31 -19.82,16.62 -25.47,4.5 -24.3,-8.85 -16.62,-19.81 -4.5,-25.47 8.85,-24.31 19.81,-16.62" /><path
             id="path158"
             style="fill:none;stroke:#000000;stroke-width:9.99300003;stroke-linecap:round;stroke-linejoin:round;stroke-miterlimit:10;stroke-dasharray:none;stroke-opacity:1"
             d="m 3799.97,3630.03 -362.27,-168.93 -19.81,-16.63 -8.85,-24.3 4.5,-25.47 16.62,-19.81 24.3,-8.85 25.47,4.49 19.82,16.63 8.84,24.3 -4.49,25.47 -16.62,19.82 -24.31,8.84 -25.47,-4.49 -16.62,19.81 -24.31,8.85 -25.47,-4.49 -19.81,-16.63 -8.85,-24.3 4.5,-25.47 16.62,-19.82 24.3,-8.84 25.48,4.49 19.81,16.62 8.85,24.31 -4.5,25.47 19.82,16.62 8.84,24.31 -4.49,25.47 -16.62,19.81 -24.31,8.85 -25.47,-4.49 -19.81,-16.63 -8.85,-24.3 4.49,-25.47 16.63,-19.82 24.3,-8.84 25.47,4.49" /><path
             id="path160"
             style="fill:none;stroke:#000000;stroke-width:9.99300003;stroke-linecap:round;stroke-linejoin:round;stroke-miterlimit:10;stroke-dasharray:none;stroke-opacity:1"
             d="m 3799.97,3630.03 h 499.65 l 24.99,6.69 18.28,18.29 6.7,24.98 -6.7,24.99 -18.28,18.29 -24.99,6.69 -24.98,-6.69 -18.29,-18.29 -6.69,-24.99 6.69,-24.98 18.29,-18.29 24.98,-6.69 6.7,-24.98 18.29,-18.29 24.98,-6.7 24.98,6.7 18.29,18.29 6.69,24.98 -6.69,24.98 -18.29,18.29 -24.98,6.69 -24.98,-6.69 -18.29,-18.29 -6.7,-24.98 -24.98,-6.69 -18.29,-18.29 -6.69,-24.99 6.69,-24.98 18.29,-18.29 24.98,-6.69 24.99,6.69 18.28,18.29 6.7,24.98 -6.7,24.99 -18.28,18.29 -24.99,6.69" /><path
             id="path162"
             style="fill:none;stroke:#000000;stroke-width:9.99300003;stroke-linecap:round;stroke-linejoin:round;stroke-miterlimit:10;stroke-dasharray:none;stroke-opacity:1"
             d="m 3799.97,3630.03 362.27,168.93 19.81,16.62 8.85,24.31 -4.49,25.47 -16.62,19.81 -24.31,8.85 -25.47,-4.5 -19.81,-16.62 -8.85,-24.31 4.49,-25.46 16.62,-19.82 24.31,-8.85 25.47,4.5 16.63,-19.82 24.3,-8.84 25.47,4.49 19.81,16.62 8.85,24.31 -4.49,25.47 -16.63,19.81 -24.3,8.85 -25.47,-4.49 -19.81,-16.63 -8.85,-24.3 4.49,-25.47 -19.81,-16.63 -8.85,-24.3 4.49,-25.47 16.63,-19.81 24.3,-8.85 25.47,4.49 19.82,16.63 8.84,24.3 -4.49,25.47 -16.62,19.81 -24.31,8.85 -25.47,-4.49" /><path
             id="path164"
             style="fill:none;stroke:#000000;stroke-width:9.99300003;stroke-linecap:round;stroke-linejoin:round;stroke-miterlimit:10;stroke-dasharray:none;stroke-opacity:1"
             d="m 3799.97,3630.03 362.27,-168.93 25.47,-4.49 24.31,8.84 16.62,19.82 4.49,25.47 -8.84,24.3 -19.82,16.63 -25.47,4.49 -24.3,-8.85 -16.63,-19.81 -4.49,-25.47 8.85,-24.31 19.81,-16.62 -4.49,-25.47 8.85,-24.31 19.81,-16.62 25.47,-4.49 24.3,8.84 16.63,19.82 4.49,25.47 -8.85,24.3 -19.81,16.63 -25.47,4.49 -24.3,-8.85 -16.63,-19.81 -25.47,4.49 -24.31,-8.84 -16.62,-19.82 -4.49,-25.47 8.85,-24.3 19.81,-16.63 25.47,-4.49 24.31,8.85 16.62,19.81 4.49,25.47 -8.85,24.3 -19.81,16.63" /><path
             id="path166"
             style="fill:none;stroke:#000000;stroke-width:9.99300003;stroke-linecap:round;stroke-linejoin:round;stroke-miterlimit:10;stroke-dasharray:none;stroke-opacity:1"
             d="m 3799.97,3630.03 v 499.65 l -6.69,24.98 -18.29,18.29 -24.98,6.69 -24.99,-6.69 -18.29,-18.29 -6.69,-24.98 6.69,-24.98 18.29,-18.29 24.99,-6.7 24.98,6.7 18.29,18.29 6.69,24.98 24.98,6.69 18.29,18.29 6.7,24.98 -6.7,24.99 -18.29,18.28 -24.98,6.7 -24.98,-6.7 -18.29,-18.28 -6.69,-24.99 6.69,-24.98 18.29,-18.29 24.98,-6.69 6.7,-24.98 18.28,-18.29 24.99,-6.7 24.98,6.7 18.29,18.29 6.69,24.98 -6.69,24.98 -18.29,18.29 -24.98,6.69 -24.99,-6.69 -18.28,-18.29 -6.7,-24.98" /><path
             id="path168"
             style="fill:none;stroke:#000000;stroke-width:9.99300003;stroke-linecap:round;stroke-linejoin:round;stroke-miterlimit:10;stroke-dasharray:none;stroke-opacity:1"
             d="m 3799.97,3630.03 168.93,362.27 4.49,25.47 -8.84,24.3 -19.82,16.63 -25.47,4.49 -24.3,-8.85 -16.63,-19.81 -4.49,-25.47 8.85,-24.31 19.81,-16.62 25.47,-4.49 24.31,8.84 16.62,19.82 25.47,-4.5 24.31,8.85 16.62,19.81 4.49,25.48 -8.84,24.3 -19.82,16.62 -25.47,4.5 -24.3,-8.85 -16.63,-19.81 -4.49,-25.47 8.85,-24.31 19.81,-16.62 -4.49,-25.47 8.84,-24.31 19.82,-16.62 25.47,-4.49 24.3,8.84 16.63,19.82 4.49,25.47 -8.85,24.3 -19.81,16.62 -25.47,4.5 -24.3,-8.85 -16.63,-19.81" /><path
             id="path170"
             style="fill:none;stroke:#000000;stroke-width:9.99300003;stroke-linecap:round;stroke-linejoin:round;stroke-miterlimit:10;stroke-dasharray:none;stroke-opacity:1"
             d="m 3799.97,3630.03 -168.93,362.27 -16.62,19.81 -24.31,8.85 -25.47,-4.5 -19.81,-16.62 -8.85,-24.3 4.5,-25.47 16.62,-19.82 24.31,-8.84 25.47,4.49 19.81,16.62 8.85,24.31 -4.5,25.47 19.82,16.62 8.84,24.31 -4.49,25.47 -16.62,19.81 -24.31,8.85 -25.47,-4.5 -19.81,-16.62 -8.85,-24.3 4.49,-25.48 16.63,-19.81 24.3,-8.85 25.47,4.5 16.63,-19.82 24.3,-8.84 25.47,4.49 19.81,16.62 8.85,24.31 -4.49,25.47 -16.63,19.81 -24.3,8.85 -25.47,-4.49 -19.81,-16.63 -8.85,-24.3 4.49,-25.47" /><path
             id="path172"
             style="fill:none;stroke:#000000;stroke-width:9.99300003;stroke-linecap:round;stroke-linejoin:round;stroke-miterlimit:10;stroke-dasharray:none;stroke-opacity:1"
             d="m 3799.97,3630.03 v -499.65 l 6.7,-24.99 18.28,-18.28 24.99,-6.7 24.98,6.7 18.29,18.28 6.69,24.99 -6.69,24.98 -18.29,18.29 -24.98,6.69 -24.99,-6.69 -18.28,-18.29 -6.7,-24.98 -24.98,-6.7 -18.29,-18.29 -6.69,-24.98 6.69,-24.98 18.29,-18.29 24.98,-6.69 24.98,6.69 18.29,18.29 6.7,24.98 -6.7,24.98 -18.29,18.29 -24.98,6.7 -6.69,24.98 -18.29,18.29 -24.98,6.69 -24.99,-6.69 -18.29,-18.29 -6.69,-24.98 6.69,-24.99 18.29,-18.28 24.99,-6.7 24.98,6.7 18.29,18.28 6.69,24.99" /><path
             id="path174"
             style="fill:none;stroke:#000000;stroke-width:9.99300003;stroke-linecap:round;stroke-linejoin:round;stroke-miterlimit:10;stroke-dasharray:none;stroke-opacity:1"
             d="m 3799.97,3630.03 168.93,-362.27 16.63,-19.81 24.3,-8.85 25.47,4.49 19.81,16.62 8.85,24.31 -4.49,25.47 -16.63,19.81 -24.3,8.85 -25.47,-4.49 -19.82,-16.62 -8.84,-24.31 4.49,-25.47 -19.81,-16.63 -8.85,-24.3 4.49,-25.47 16.63,-19.81 24.3,-8.85 25.47,4.49 19.82,16.63 8.84,24.3 -4.49,25.47 -16.62,19.81 -24.31,8.85 -25.47,-4.49 -16.62,19.81 -24.31,8.85 -25.47,-4.49 -19.81,-16.63 -8.85,-24.3 4.49,-25.47 16.63,-19.82 24.3,-8.84 25.47,4.49 19.82,16.62 8.84,24.31 -4.49,25.47" /><path
             id="path176"
             style="fill:none;stroke:#000000;stroke-width:9.99300003;stroke-linecap:round;stroke-linejoin:round;stroke-miterlimit:10;stroke-dasharray:none;stroke-opacity:1"
             d="m 3799.97,3630.03 -168.93,-362.27 -4.49,-25.47 8.85,-24.31 19.81,-16.62 25.47,-4.49 24.3,8.84 16.63,19.82 4.49,25.47 -8.85,24.3 -19.81,16.63 -25.47,4.49 -24.3,-8.85 -16.63,-19.81 -25.47,4.49 -24.3,-8.85 -16.63,-19.81 -4.49,-25.47 8.85,-24.3 19.81,-16.63 25.47,-4.49 24.31,8.85 16.62,19.81 4.49,25.47 -8.84,24.3 -19.82,16.63 4.5,25.47 -8.85,24.31 -19.81,16.62 -25.47,4.49 -24.31,-8.85 -16.62,-19.81 -4.5,-25.47 8.85,-24.31 19.81,-16.62 25.47,-4.49 24.31,8.85 16.62,19.81" /></g></g></g></g></svg>